<?xml version="1.0" encoding="UTF-8" standalone="no"?>
<!-- Created with Inkscape (http://www.inkscape.org/) -->

<svg
        xmlns:dc="http://purl.org/dc/elements/1.1/"
        xmlns:cc="http://creativecommons.org/ns#"
        xmlns:rdf="http://www.w3.org/1999/02/22-rdf-syntax-ns#"
        xmlns="http://www.w3.org/2000/svg"
        xmlns:sodipodi="http://sodipodi.sourceforge.net/DTD/sodipodi-0.dtd"
        xmlns:inkscape="http://www.inkscape.org/namespaces/inkscape"
        version="1.1"
        id="svg2"
        xml:space="preserve"
        width="1890.6667"
        height="1513.3333"
        viewBox="0 0 1890.6667 1513.3333"
        sodipodi:docname="back.svg"
        inkscape:version="0.92.3 (2405546, 2018-03-11)"><metadata
     id="metadata8"><rdf:RDF><cc:Work
         rdf:about=""><dc:format>image/svg+xml</dc:format><dc:type
           rdf:resource="http://purl.org/dc/dcmitype/StillImage" /><dc:title></dc:title></cc:Work></rdf:RDF></metadata><defs
     id="defs6" /><sodipodi:namedview
     pagecolor="#ffffff"
     bordercolor="#666666"
     borderopacity="1"
     objecttolerance="10"
     gridtolerance="10"
     guidetolerance="10"
     inkscape:pageopacity="0"
     inkscape:pageshadow="2"
     inkscape:window-width="1680"
     inkscape:window-height="998"
     id="namedview4"
     showgrid="false"
     inkscape:zoom="0.31189429"
     inkscape:cx="740.2818"
     inkscape:cy="735.10414"
     inkscape:window-x="0"
     inkscape:window-y="24"
     inkscape:window-maximized="1"
     inkscape:current-layer="g12" /><g
     id="g10"
     inkscape:groupmode="layer"
     inkscape:label="ink_ext_XXXXXX"
     transform="matrix(1.3333333,0,0,-1.3333333,0,1513.3333)"><g
       id="g12"
       transform="scale(0.1)"><path
         d="M 7369.58,1573 H 9926.84 V 5829.41 L 8648.21,6646.44 7369.58,5829.41 V 1573"
         style="fill:#c1ddd4;fill-opacity:1;fill-rule:evenodd;stroke:none"
         id="path16"
         inkscape:connector-curvature="0" /><path
         d="M 2037.13,1573 H 4594.4 V 4836.36 L 3315.76,5653.39 2037.13,4836.36 V 1573"
         style="fill:#c1ddd4;fill-opacity:1;fill-rule:evenodd;stroke:none"
         id="path18"
         inkscape:connector-curvature="0" /><path
         d="m 3173.04,2665.8 h 285.45 v -540.34 h -285.45 v 540.34"
         style="fill:#9bbcad;fill-opacity:1;fill-rule:evenodd;stroke:none"
         id="path20"
         inkscape:connector-curvature="0" /><path
         d="m 3173.04,3658.85 h 285.45 v -540.34 h -285.45 v 540.34"
         style="fill:#9bbcad;fill-opacity:1;fill-rule:evenodd;stroke:none"
         id="path22"
         inkscape:connector-curvature="0" /><path
         d="m 3173.04,4651.9 h 285.45 v -540.34 h -285.45 v 540.34"
         style="fill:#9bbcad;fill-opacity:1;fill-rule:evenodd;stroke:none"
         id="path24"
         inkscape:connector-curvature="0" /><path
         d="m 4479.37,1572.99 h 2720.8 V 9290.11 H 4479.37 V 1572.99"
         style="fill:#aec8bd;fill-opacity:1;fill-rule:evenodd;stroke:none"
         id="path26"
         inkscape:connector-curvature="0" /><path
         d="m 7557.89,7934.04 -0.01,304.54 c 13.39,14.36 21.59,33.62 21.59,54.8 h 21.6 l 0.03,-412.4 h -21.65 c -0.43,20.5 -8.54,39.1 -21.56,53.06"
         style="fill:#413f3f;fill-opacity:1;fill-rule:nonzero;stroke:none"
         id="path28"
         inkscape:connector-curvature="0" /><path
         d="m 7025.8,7880.98 -0.02,412.4 h 21.6 c 0,-21.18 8.2,-40.45 21.6,-54.8 l 0.02,-304.5 c -13.05,-13.96 -21.17,-32.58 -21.6,-53.1 h -21.6"
         style="fill:#413f3f;fill-opacity:1;fill-rule:nonzero;stroke:none"
         id="path30"
         inkscape:connector-curvature="0" /><path
         d="m 5626.7,2664.06 h 285.45 V 2123.72 H 5626.7 v 540.34"
         style="fill:#623721;fill-opacity:1;fill-rule:evenodd;stroke:none"
         id="path32"
         inkscape:connector-curvature="0" /><path
         d="m 6580.52,2664.06 h 285.46 v -540.34 h -285.46 v 540.34"
         style="fill:#452514;fill-opacity:1;fill-rule:evenodd;stroke:none"
         id="path34"
         inkscape:connector-curvature="0" /><path
         d="M 5292.51,1857.2 H 8154 V 1573 H 5292.51 v 284.2"
         style="fill:#452514;fill-opacity:1;fill-rule:evenodd;stroke:none"
         id="path36"
         inkscape:connector-curvature="0" /><path
         d="m 5292.51,2850.25 h 953.83 V 1857.2 h -953.83 z m 334.19,-186.19 h 285.45 V 2123.72 H 5626.7 v 540.34"
         style="fill:#d05e2d;fill-opacity:1;fill-rule:evenodd;stroke:none"
         id="path38"
         inkscape:connector-curvature="0" /><path
         d="m 6246.34,2850.25 h 953.83 V 1857.2 h -953.83 z m 334.18,-186.19 h 285.46 v -540.34 h -285.46 v 540.34"
         style="fill:#b14518;fill-opacity:1;fill-rule:evenodd;stroke:none"
         id="path40"
         inkscape:connector-curvature="0" /><path
         d="M 7200.17,2850.25 H 8154 V 1857.2 h -953.83 z m 334.19,-186.19 h 285.45 v -540.34 h -285.45 v 540.34"
         style="fill:#853716;fill-opacity:1;fill-rule:evenodd;stroke:none"
         id="path42"
         inkscape:connector-curvature="0" /><path
         d="m 5292.51,3843.3 h 953.83 v -993.05 h -953.83 z m 334.19,-186.19 h 285.45 V 3116.77 H 5626.7 v 540.34"
         style="fill:#e37949;fill-opacity:1;fill-rule:evenodd;stroke:none"
         id="path44"
         inkscape:connector-curvature="0" /><path
         d="m 6246.34,3843.3 h 953.83 v -993.05 h -953.83 z m 334.18,-186.19 h 285.46 v -540.34 h -285.46 v 540.34"
         style="fill:#d05e2d;fill-opacity:1;fill-rule:evenodd;stroke:none"
         id="path46"
         inkscape:connector-curvature="0" /><path
         d="M 7200.17,3843.3 H 8154 v -993.05 h -953.83 z m 334.19,-186.19 h 285.45 v -540.34 h -285.45 v 540.34"
         style="fill:#b14518;fill-opacity:1;fill-rule:evenodd;stroke:none"
         id="path48"
         inkscape:connector-curvature="0" /><path
         d="m 5292.51,4836.36 h 953.83 V 3843.3 h -953.83 z m 334.19,-186.2 h 285.45 V 4109.82 H 5626.7 v 540.34"
         style="fill:#eee4d3;fill-opacity:1;fill-rule:evenodd;stroke:none"
         id="path50"
         inkscape:connector-curvature="0" /><path
         d="m 6246.34,4836.36 h 953.83 V 3843.3 h -953.83 z m 334.18,-186.2 h 285.46 v -540.34 h -285.46 v 540.34"
         style="fill:#e37949;fill-opacity:1;fill-rule:evenodd;stroke:none"
         id="path52"
         inkscape:connector-curvature="0" /><path
         d="M 7200.17,4836.36 H 8154 V 3843.3 h -953.83 z m 334.19,-186.2 h 285.45 v -540.34 h -285.45 v 540.34"
         style="fill:#d05e2d;fill-opacity:1;fill-rule:evenodd;stroke:none"
         id="path54"
         inkscape:connector-curvature="0" /><path
         d="M 7200.17,5829.41 H 8154 V 4836.36 H 6246.34 v 993.05 z m -619.65,-186.2 h 285.46 v -540.33 h -285.46 z m 953.84,0 h 285.45 v -540.33 h -285.45 v 540.33"
         style="fill:#a49e9a;fill-opacity:1;fill-rule:evenodd;stroke:none"
         id="path56"
         inkscape:connector-curvature="0" /><path
         d="m 5292.51,5829.41 h 953.83 v -993.05 h -83.13 v 849.31 h -787.58 v -849.31 h -83.12 v 993.05"
         style="fill:#ffffff;fill-opacity:1;fill-rule:evenodd;stroke:none"
         id="path58"
         inkscape:connector-curvature="0" /><path
         d="M 7200.17,6822.46 H 8154 v -993.05 h -83.12 v 849.31 H 7283.3 v -849.31 h -83.13 -83.13 v 849.31 h -787.58 v -849.31 h -83.12 v 993.05 h 953.83"
         style="fill:#ffffff;fill-opacity:1;fill-rule:evenodd;stroke:none"
         id="path60"
         inkscape:connector-curvature="0" /><path
         d="m 7534.36,2664.06 h 285.45 v -540.34 h -285.45 v 540.34"
         style="fill:#301c12;fill-opacity:1;fill-rule:evenodd;stroke:none"
         id="path62"
         inkscape:connector-curvature="0" /><path
         d="m 5626.7,3657.11 h 285.45 V 3116.77 H 5626.7 v 540.34"
         style="fill:#714028;fill-opacity:1;fill-rule:evenodd;stroke:none"
         id="path64"
         inkscape:connector-curvature="0" /><path
         d="m 6580.52,3657.11 h 285.46 v -540.34 h -285.46 v 540.34"
         style="fill:#623721;fill-opacity:1;fill-rule:evenodd;stroke:none"
         id="path66"
         inkscape:connector-curvature="0" /><path
         d="m 7534.36,3657.11 h 285.45 v -540.34 h -285.45 v 540.34"
         style="fill:#452514;fill-opacity:1;fill-rule:evenodd;stroke:none"
         id="path68"
         inkscape:connector-curvature="0" /><path
         d="m 5626.7,4650.16 h 285.45 V 4109.82 H 5626.7 v 540.34"
         style="fill:#5c5755;fill-opacity:1;fill-rule:evenodd;stroke:none"
         id="path70"
         inkscape:connector-curvature="0" /><path
         d="m 6580.52,4650.16 h 285.46 v -540.34 h -285.46 v 540.34"
         style="fill:#714028;fill-opacity:1;fill-rule:evenodd;stroke:none"
         id="path72"
         inkscape:connector-curvature="0" /><path
         d="m 7534.36,4650.16 h 285.45 v -540.34 h -285.45 v 540.34"
         style="fill:#623721;fill-opacity:1;fill-rule:evenodd;stroke:none"
         id="path74"
         inkscape:connector-curvature="0" /><path
         d="m 12875.5,1573 c 95.1,1.2 171.6,-77.08 171.6,-171.58 0,-94.76 -76.8,-171.58 -171.5,-171.58 l -11572.71,0.01 c -94.68,-1.25 -172.24,77.49 -172.24,171.57 0,94.08 77.56,172.82 172.24,171.58 H 12875.5"
         style="fill:#6a5d5d;fill-opacity:1;fill-rule:evenodd;stroke:none"
         id="path76"
         inkscape:connector-curvature="0" /><path
         d="m 5798.57,1321.14 h 2820.29 c 50.01,1.28 91.34,-42.18 91.34,-91.29 0,-50.42 -40.87,-91.29 -91.29,-91.29 H 5798.57 c -50.55,-0.19 -91.64,40.73 -91.64,91.29 0,50.56 41.09,91.48 91.64,91.29"
         style="fill:#f4d596;fill-opacity:1;fill-rule:evenodd;stroke:none"
         id="path78"
         inkscape:connector-curvature="0" /><path
         d="m 2568.09,1385.67 h 2547.89 l 0.08,0.01 c 86.07,0 155.83,-69.77 155.83,-155.83 0,-86.07 -69.76,-155.83 -155.83,-155.83 h -0.08 -2547.89 v 0 h -0.59 c -86.07,0 -155.83,69.76 -155.83,155.83 0,86.06 69.76,155.83 155.83,155.83 l 0.59,-0.01 v 0"
         style="fill:#a6988f;fill-opacity:1;fill-rule:evenodd;stroke:none"
         id="path80"
         inkscape:connector-curvature="0" /><path
         d="m 6957.73,8998.17 c 76.05,0 137.7,-61.65 137.7,-137.71 0,-76.05 -61.65,-137.69 -137.7,-137.69 -76.05,0 -137.7,61.64 -137.7,137.69 0,76.06 61.65,137.71 137.7,137.71"
         style="fill:#e37949;fill-opacity:1;fill-rule:evenodd;stroke:none"
         id="path82"
         inkscape:connector-curvature="0" /><path
         d="m 1708.25,8595.43 c 76.05,0 137.7,-61.65 137.7,-137.7 0,-76.05 -61.65,-137.71 -137.7,-137.71 -76.05,0 -137.7,61.66 -137.7,137.71 0,76.05 61.65,137.7 137.7,137.7"
         style="fill:#e37949;fill-opacity:1;fill-rule:evenodd;stroke:none"
         id="path84"
         inkscape:connector-curvature="0" /><path
         d="m 3616.43,10176.7 c 76.05,0 137.7,-61.6 137.7,-137.7 0,-76.05 -61.65,-137.7 -137.7,-137.7 -76.05,0 -137.7,61.65 -137.7,137.7 0,76.1 61.65,137.7 137.7,137.7"
         style="fill:#e37949;fill-opacity:1;fill-rule:evenodd;stroke:none"
         id="path86"
         inkscape:connector-curvature="0" /><path
         d="m 3573.06,2169.76 c 0,11.97 4.85,22.81 12.69,30.65 l 434.24,522.74 h -403.56 c -23.95,0 -43.37,19.42 -43.37,43.38 0,11.97 4.85,22.8 12.69,30.65 l 434.24,522.74 h -403.56 c -23.95,0 -43.37,19.42 -43.37,43.37 0,11.97 4.85,22.8 12.69,30.65 l 434.24,522.74 h -403.56 c -23.95,0 -43.37,19.42 -43.37,43.37 0,11.97 4.85,22.81 12.69,30.65 l 434.24,522.74 h -403.56 c -23.95,0 -43.37,19.42 -43.37,43.37 0,11.97 4.85,22.8 12.69,30.65 l 434.24,522.74 h -403.56 c -23.95,0 -43.37,19.42 -43.37,43.37 0,11.97 4.85,22.81 12.69,30.66 l 434.24,522.73 h -403.56 c -23.95,0 -43.37,19.42 -43.37,43.38 0,3.93 0.53,7.73 1.51,11.35 -3.27,12.93 -0.52,27.19 8.66,38.22 l 436.76,525.78 h -403.56 c -23.95,0 -43.37,19.41 -43.37,43.36 0,11.97 4.85,22.81 12.69,30.66 l 434.24,522.74 h -403.56 c -23.95,0 -43.37,19.42 -43.37,43.37 0,11.97 4.85,22.8 12.69,30.65 l 493.2,593.73 c 15.26,18.34 42.49,20.84 60.83,5.59 18.34,-15.25 20.84,-42.49 5.59,-60.83 l -436.76,-525.77 h 403.55 c 23.96,0 43.37,-19.42 43.37,-43.37 0,-11.97 -4.85,-22.8 -12.69,-30.65 l -434.23,-522.74 h 403.55 c 23.96,0 43.37,-19.42 43.37,-43.38 0,-11.96 -4.85,-22.8 -12.69,-30.64 l -452.48,-544.7 h 421.8 c 23.96,0 43.37,-19.42 43.37,-43.37 0,-11.97 -4.85,-22.81 -12.69,-30.66 l -434.23,-522.73 h 403.55 c 23.96,0 43.37,-19.42 43.37,-43.38 0,-11.96 -4.85,-22.8 -12.69,-30.65 l -434.23,-522.74 h 403.55 c 23.96,0 43.37,-19.41 43.37,-43.37 0,-11.97 -4.85,-22.8 -12.69,-30.65 l -434.23,-522.74 h 403.55 c 23.96,0 43.37,-19.42 43.37,-43.37 0,-11.97 -4.85,-22.8 -12.69,-30.65 l -434.23,-522.74 h 403.55 c 23.96,0 43.37,-19.42 43.37,-43.37 0,-11.97 -4.85,-22.81 -12.69,-30.65 L 3708.61,2809.9 h 403.55 c 23.96,0 43.37,-19.42 43.37,-43.37 0,-11.97 -4.85,-22.81 -12.69,-30.65 l -434.23,-522.74 h 403.55 c 23.96,0 43.37,-19.43 43.37,-43.38 h -582.47"
         style="fill:#49676a;fill-opacity:1;fill-rule:nonzero;stroke:none"
         id="path88"
         inkscape:connector-curvature="0" /><path
         d="m 7712.49,8457.73 c 0,-23.96 -19.42,-43.38 -43.37,-43.38 -23.95,0 -43.37,19.42 -43.37,43.38 v 328.49 l -643.81,-364.48 c -6.91,-4.67 -15.24,-7.39 -24.21,-7.39 -23.95,0 -43.37,19.42 -43.37,43.38 v 328.49 l -643.81,-364.48 c -6.91,-4.67 -15.25,-7.39 -24.21,-7.39 -23.96,0 -43.38,19.42 -43.38,43.38 v 328.49 l -643.8,-364.48 c -6.92,-4.67 -15.25,-7.39 -24.21,-7.39 -23.96,0 -43.38,19.42 -43.38,43.38 v 328.49 l -643.8,-364.48 c -6.92,-4.67 -15.25,-7.39 -24.22,-7.39 -23.95,0 -43.37,19.42 -43.37,43.38 v 402.73 c 0,23.96 19.42,43.38 43.37,43.38 23.96,0 43.38,-19.42 43.38,-43.38 v -328.49 l 643.8,364.48 c 6.92,4.66 15.25,7.39 24.22,7.39 23.95,0 43.37,-19.42 43.37,-43.38 v -328.49 l 643.81,364.48 c 6.91,4.66 15.24,7.39 24.21,7.39 23.95,0 43.37,-19.42 43.37,-43.38 v -328.49 l 643.81,364.48 c 6.91,4.66 15.24,7.39 24.21,7.39 23.95,0 43.37,-19.42 43.37,-43.38 v -328.49 l 643.81,364.48 c 6.91,4.66 15.24,7.39 24.21,7.39 23.95,0 43.37,-19.42 43.37,-43.38 v -402.73"
         style="fill:#49676a;fill-opacity:1;fill-rule:nonzero;stroke:none"
         id="path90"
         inkscape:connector-curvature="0" /><path
         d="m 4145.37,8485.34 c 15.25,-18.34 12.75,-45.57 -5.59,-60.82 -18.34,-15.25 -45.57,-12.75 -60.83,5.59 l -493.2,593.73 c -7.84,7.84 -12.69,18.68 -12.69,30.64 0,23.96 19.42,43.38 43.37,43.38 h 308.64 c 23.96,0 43.38,-19.42 43.38,-43.38 0,-23.94 -19.42,-43.36 -43.38,-43.36 h -216.46 l 436.76,-525.78"
         style="fill:#49676a;fill-opacity:1;fill-rule:nonzero;stroke:none"
         id="path92"
         inkscape:connector-curvature="0" /><path
         d="m 2217.86,8896.45 643.81,-364.48 v 328.49 c 0,23.96 19.42,43.38 43.37,43.38 23.95,0 43.37,-19.42 43.37,-43.38 v -402.73 c 0,-23.96 -19.42,-43.38 -43.37,-43.38 -8.97,0 -17.3,2.72 -24.21,7.39 l -643.81,364.48 v -328.49 c 0,-23.96 -19.42,-43.38 -43.38,-43.38 -23.94,0 -43.36,19.42 -43.36,43.38 v 402.73 c 0,23.96 19.42,43.38 43.36,43.38 8.97,0 17.31,-2.73 24.22,-7.39"
         style="fill:#49676a;fill-opacity:1;fill-rule:nonzero;stroke:none"
         id="path94"
         inkscape:connector-curvature="0" /><path
         d="M 4066.62,2169.76 V 8412.18 H 3661.97 V 2169.76 h -91.08 V 8457.73 10039 c 0,25.2 20.39,45.5 45.54,45.5 21.38,0 39.32,-14.7 44.21,-34.6 l 484.89,-1546.64 h 12.17 v -45.53 -6287.97 z m -404.65,6333.5 h 388.27 l -388.27,1238.51 z"
         style="fill:#6da0a0;fill-opacity:1;fill-rule:nonzero;stroke:none"
         id="path96"
         inkscape:connector-curvature="0" /><path
         d="m 4798.13,8898.25 c 7.26,4.9 16.01,7.75 25.42,7.75 h 2845.57 c 9.42,0 18.17,-2.85 25.42,-7.75 l 705.26,-399.27 c 15.51,-7.25 26.25,-23 26.25,-41.25 0,-25.16 -20.39,-45.55 -45.54,-45.55 H 4112.16 3939.55 l 150.2,85.03 z m 2859.26,-83.32 H 4835.29 L 4284.77,8503.26 H 8207.9 l -550.51,311.67"
         style="fill:#6da0a0;fill-opacity:1;fill-rule:nonzero;stroke:none"
         id="path98"
         inkscape:connector-curvature="0" /><path
         d="m 1680.95,8494.18 481.96,399.89 c 8.1,7.41 18.89,11.93 30.73,11.93 h 711.4 c 9.41,0 18.16,-2.85 25.42,-7.75 l 705.25,-399.27 c 15.52,-7.25 26.26,-23 26.26,-41.25 0,-25.16 -20.39,-45.55 -45.54,-45.55 H 1708.25 c -25.15,0 -45.54,20.39 -45.54,45.55 0,14.91 7.17,28.14 18.24,36.45 z m 1762.87,9.08 -550.51,311.67 h -683.32 l -375.62,-311.67 h 1609.45"
         style="fill:#6da0a0;fill-opacity:1;fill-rule:nonzero;stroke:none"
         id="path100"
         inkscape:connector-curvature="0" /><path
         d="m 4286.85,7562.58 h -597.24 c -40.25,0 -73.18,32.93 -73.18,73.17 v 748.8 c 0,40.25 32.93,73.18 73.18,73.18 h 597.24 c 40.25,0 73.18,-32.93 73.18,-73.18 v -748.8 c 0,-40.24 -32.93,-73.17 -73.18,-73.17"
         style="fill:#517174;fill-opacity:1;fill-rule:evenodd;stroke:none"
         id="path102"
         inkscape:connector-curvature="0" /><path
         d="m 1629.9,8570.96 1889.91,1566.14 c -23.58,-23.2 -38.83,-54.9 -40.85,-90.1 L 1725.95,8594.3 c -5.8,0.74 -11.71,1.13 -17.7,1.13 -29.11,0 -56.11,-9.05 -78.35,-24.47"
         style="fill:#413f3f;fill-opacity:1;fill-rule:nonzero;stroke:none"
         id="path104"
         inkscape:connector-curvature="0" /><path
         d="M 3674.68,10163.8 6990.77,8994.17 c -10.58,2.61 -21.65,4 -33.04,4 -23.07,0 -44.81,-5.68 -63.91,-15.71 L 3742.75,10093.9 c -13.4,30.8 -37.72,55.7 -68.07,69.9 v 0"
         style="fill:#413f3f;fill-opacity:1;fill-rule:nonzero;stroke:none"
         id="path106"
         inkscape:connector-curvature="0" /><path
         d="m 2150.28,8009.92 h 399.06 v 402.74 h -399.06 v -402.74"
         style="fill:#9d9d9d;fill-opacity:1;fill-rule:evenodd;stroke:none"
         id="path108"
         inkscape:connector-curvature="0" /><path
         d="m 3368.57,2169.76 h 991.46 V 1573 h -991.46 v 596.76"
         style="fill:#9d9d9d;fill-opacity:1;fill-rule:evenodd;stroke:none"
         id="path110"
         inkscape:connector-curvature="0" /><path
         d="m 2549.34,8009.92 h 399.07 v 402.74 h -399.07 v -402.74"
         style="fill:#6a6969;fill-opacity:1;fill-rule:evenodd;stroke:none"
         id="path112"
         inkscape:connector-curvature="0" /><path
         d="m 4286.85,7562.58 h -220.23 v 895.15 h 220.23 c 40.25,0 73.18,-32.93 73.18,-73.18 v -748.8 c 0,-40.24 -32.93,-73.17 -73.18,-73.17"
         style="fill:#354343;fill-opacity:1;fill-rule:evenodd;stroke:none"
         id="path114"
         inkscape:connector-curvature="0" /><path
         d="M 4360.03,7802.89 H 3935.7 c -22.86,0 -41.57,18.71 -41.57,41.57 v 425.35 c 0,22.87 18.71,41.57 41.57,41.57 h 424.33 v -508.49"
         style="fill:#88babe;fill-opacity:1;fill-rule:evenodd;stroke:none"
         id="path116"
         inkscape:connector-curvature="0" /><path
         d="m 4360.03,7802.89 h -293.41 v 508.49 h 293.41 v -508.49"
         style="fill:#517174;fill-opacity:1;fill-rule:evenodd;stroke:none"
         id="path118"
         inkscape:connector-curvature="0" /><path
         d="m 7000.5,7747.07 312.93,-128.56 v 262.47 H 7000.5 v -133.91"
         style="fill:#e37949;fill-opacity:1;fill-rule:evenodd;stroke:none"
         id="path120"
         inkscape:connector-curvature="0" /><path
         d="m 7396.98,7652.84 c 28.46,-23.87 46.56,-59.69 46.56,-99.74 0,-71.86 -58.25,-130.11 -130.11,-130.11 -71.86,0 -130.11,58.25 -130.11,130.11 h 64.7 c 0,-36.12 29.28,-65.41 65.41,-65.41 36.12,0 65.41,29.29 65.41,65.41 0,36.13 -29.29,65.41 -65.41,65.41 l 83.55,34.33"
         style="fill:#853716;fill-opacity:1;fill-rule:evenodd;stroke:none"
         id="path122"
         inkscape:connector-curvature="0" /><path
         d="m 6914.36,8293.38 h 399.07 v 118.8 h -399.07 v -118.8"
         style="fill:#aaaaaa;fill-opacity:1;fill-rule:evenodd;stroke:none"
         id="path124"
         inkscape:connector-curvature="0" /><path
         d="m 7626.36,7747.07 -312.93,-128.56 v 262.47 h 312.93 v -133.91"
         style="fill:#b14518;fill-opacity:1;fill-rule:evenodd;stroke:none"
         id="path126"
         inkscape:connector-curvature="0" /><path
         d="m 7313.43,8293.38 h 399.06 v 118.8 h -399.06 v -118.8"
         style="fill:#6a6969;fill-opacity:1;fill-rule:evenodd;stroke:none"
         id="path128"
         inkscape:connector-curvature="0" /><path
         d="m 7127.7,7959.59 c 43.79,0 79.39,-35.04 80.31,-78.61 H 7047.4 c 0.92,43.57 36.51,78.61 80.3,78.61"
         style="fill:#e37949;fill-opacity:1;fill-rule:evenodd;stroke:none"
         id="path130"
         inkscape:connector-curvature="0" /><path
         d="m 7499.15,7959.59 c 43.78,0 79.39,-35.04 80.3,-78.61 h -160.61 c 0.92,43.57 36.52,78.61 80.31,78.61"
         style="fill:#e37949;fill-opacity:1;fill-rule:evenodd;stroke:none"
         id="path132"
         inkscape:connector-curvature="0" /><path
         d="m 7208.03,8293.38 c 0,-44.37 -35.96,-80.33 -80.33,-80.33 -44.36,0 -80.32,35.96 -80.32,80.33 h 160.65"
         style="fill:#e37949;fill-opacity:1;fill-rule:evenodd;stroke:none"
         id="path134"
         inkscape:connector-curvature="0" /><path
         d="m 7579.47,8293.38 c 0,-44.37 -35.96,-80.33 -80.32,-80.33 -44.37,0 -80.33,35.96 -80.33,80.33 h 160.65"
         style="fill:#e37949;fill-opacity:1;fill-rule:evenodd;stroke:none"
         id="path136"
         inkscape:connector-curvature="0" /><path
         d="m 7127.7,8332.39 c 21.55,0 39.02,-17.46 39.02,-39.01 0,-21.55 -17.47,-39.02 -39.02,-39.02 -21.54,0 -39.01,17.47 -39.01,39.02 0,21.55 17.47,39.01 39.01,39.01"
         style="fill:#853716;fill-opacity:1;fill-rule:evenodd;stroke:none"
         id="path138"
         inkscape:connector-curvature="0" /><path
         d="m 7127.7,7920 c 21.55,0 39.02,-17.47 39.02,-39.02 0,-21.55 -17.47,-39.02 -39.02,-39.02 -21.54,0 -39.01,17.47 -39.01,39.02 0,21.55 17.47,39.02 39.01,39.02"
         style="fill:#853716;fill-opacity:1;fill-rule:evenodd;stroke:none"
         id="path140"
         inkscape:connector-curvature="0" /><path
         d="m 7499.15,8332.39 c 21.55,0 39.01,-17.46 39.01,-39.01 0,-21.55 -17.46,-39.02 -39.01,-39.02 -21.55,0 -39.02,17.47 -39.02,39.02 0,21.55 17.47,39.01 39.02,39.01"
         style="fill:#853716;fill-opacity:1;fill-rule:evenodd;stroke:none"
         id="path142"
         inkscape:connector-curvature="0" /><path
         d="m 7499.15,7920 c 21.55,0 39.01,-17.47 39.01,-39.02 0,-21.55 -17.46,-39.02 -39.01,-39.02 -21.55,0 -39.02,17.47 -39.02,39.02 0,21.55 17.47,39.02 39.02,39.02"
         style="fill:#853716;fill-opacity:1;fill-rule:evenodd;stroke:none"
         id="path144"
         inkscape:connector-curvature="0" /><path
         d="m 7989.42,6822.46 v -143.74 h -334.19 v 84.25 h -285.46 v -84.25 h -86.47 v -722.6 h -166.26 v 866.34 h 872.38"
         style="fill:#6c6966;fill-opacity:1;fill-rule:evenodd;stroke:none"
         id="path146"
         inkscape:connector-curvature="0" /><path
         d="m 6836.51,7152.39 h 953.83 V 6159.34 H 6836.51 Z M 7170.7,6966.2 h 285.46 V 6425.86 H 7170.7 v 540.34"
         style="fill:#a49e9a;fill-opacity:1;fill-rule:evenodd;stroke:none"
         id="path148"
         inkscape:connector-curvature="0" /><path
         d="m 6849.64,7135.2 c -9.5,-7.25 -23.07,-5.43 -30.32,4.06 -7.26,9.5 -5.44,23.08 4.06,30.33 l 476.91,365.64 c 9.5,7.25 23.08,5.43 30.33,-4.07 7.26,-9.5 5.43,-23.07 -4.07,-30.32 L 6849.64,7135.2"
         style="fill:#413f3f;fill-opacity:1;fill-rule:nonzero;stroke:none"
         id="path150"
         inkscape:connector-curvature="0" /><path
         d="m 7300.29,7500.84 c -9.49,7.25 -11.31,20.82 -4.06,30.32 7.25,9.5 20.83,11.32 30.32,4.07 l 476.92,-365.64 c 9.5,-7.25 11.32,-20.83 4.07,-30.33 -7.25,-9.49 -20.83,-11.31 -30.33,-4.06 l -476.92,365.64"
         style="fill:#413f3f;fill-opacity:1;fill-rule:nonzero;stroke:none"
         id="path152"
         inkscape:connector-curvature="0" /><path
         d="m 1694.98,2487.59 v 0 V 1573 h -43.29 v 871.3 c 0,23.91 19.38,43.29 43.29,43.29"
         style="fill:#a0a0a0;fill-opacity:1;fill-rule:evenodd;stroke:none"
         id="path154"
         inkscape:connector-curvature="0" /><path
         d="m 1694.98,2487.59 c 23.91,0 43.29,-19.38 43.29,-43.29 V 1573 h -43.29 v 914.59"
         style="fill:#535252;fill-opacity:1;fill-rule:evenodd;stroke:none"
         id="path156"
         inkscape:connector-curvature="0" /><path
         d="m 2568.09,2487.59 v 0 V 1573 h -43.29 v 871.3 c 0,23.91 19.38,43.29 43.29,43.29"
         style="fill:#a0a0a0;fill-opacity:1;fill-rule:evenodd;stroke:none"
         id="path158"
         inkscape:connector-curvature="0" /><path
         d="m 2568.09,2487.59 c 23.91,0 43.29,-19.38 43.29,-43.29 V 1573 h -43.29 v 914.59"
         style="fill:#535252;fill-opacity:1;fill-rule:evenodd;stroke:none"
         id="path160"
         inkscape:connector-curvature="0" /><path
         d="m 2697.96,2343.41 v -254.52 c -0.03,-31.39 -25.5,-57.12 -56.79,-57.59 h -132.02 l 177.1,346.78 c 7.33,-9.67 11.7,-21.68 11.71,-34.67"
         style="fill:#b30000;fill-opacity:1;fill-rule:evenodd;stroke:none"
         id="path162"
         inkscape:connector-curvature="0" /><path
         d="m 2686.25,2378.08 -177.1,-346.78 h -188.81 l 188.81,369.71 h 131.15 c 18.7,0 35.4,-9.03 45.95,-22.93"
         style="fill:#ffffff;fill-opacity:1;fill-rule:evenodd;stroke:none"
         id="path164"
         inkscape:connector-curvature="0" /><path
         d="M 2509.15,2401.01 2320.34,2031.3 h -188.8 l 188.8,369.71 h 188.81"
         style="fill:#b30000;fill-opacity:1;fill-rule:evenodd;stroke:none"
         id="path166"
         inkscape:connector-curvature="0" /><path
         d="m 2131.54,2401.01 h 188.8 l -188.8,-369.72 h -188.81 l 188.81,369.72"
         style="fill:#ffffff;fill-opacity:1;fill-rule:evenodd;stroke:none"
         id="path168"
         inkscape:connector-curvature="0" /><path
         d="m 1942.73,2401.01 h 188.81 l -188.81,-369.72 h -188.81 l 188.81,369.72"
         style="fill:#b30000;fill-opacity:1;fill-rule:evenodd;stroke:none"
         id="path170"
         inkscape:connector-curvature="0" /><path
         d="m 1753.92,2401.01 h 188.81 l -188.81,-369.72 h -131.48 c -18.57,0.11 -35.13,9.11 -45.62,22.94 l 177.1,346.78"
         style="fill:#ffffff;fill-opacity:1;fill-rule:evenodd;stroke:none"
         id="path172"
         inkscape:connector-curvature="0" /><path
         d="m 1565.11,2088.96 v 254.39 c 0,31.58 25.73,57.44 57.26,57.66 h 131.55 l -177.1,-346.78 c -7.34,9.67 -11.71,21.71 -11.71,34.73"
         style="fill:#b30000;fill-opacity:1;fill-rule:evenodd;stroke:none"
         id="path174"
         inkscape:connector-curvature="0" /><path
         d="m 2568.09,1746.16 v 0 h -873.11 v 0 c 0,23.91 19.38,43.29 43.28,43.29 h 786.54 c 23.91,0 43.29,-19.38 43.29,-43.29"
         style="fill:#a0a0a0;fill-opacity:1;fill-rule:evenodd;stroke:none"
         id="path176"
         inkscape:connector-curvature="0" /><path
         d="m 2568.09,1746.16 c 0,-23.91 -19.38,-43.29 -43.29,-43.29 h -786.54 c -23.9,0 -43.28,19.38 -43.28,43.29 h 873.11"
         style="fill:#535252;fill-opacity:1;fill-rule:evenodd;stroke:none"
         id="path178"
         inkscape:connector-curvature="0" /><path
         d="m 8505.48,2665.8 h 285.46 v -540.34 h -285.46 v 540.34"
         style="fill:#95b4a6;fill-opacity:1;fill-rule:evenodd;stroke:none"
         id="path180"
         inkscape:connector-curvature="0" /><path
         d="m 8505.48,3658.85 h 285.46 v -540.34 h -285.46 v 540.34"
         style="fill:#95b4a6;fill-opacity:1;fill-rule:evenodd;stroke:none"
         id="path182"
         inkscape:connector-curvature="0" /><path
         d="m 8505.48,4651.9 h 285.46 v -540.34 h -285.46 v 540.34"
         style="fill:#95b4a6;fill-opacity:1;fill-rule:evenodd;stroke:none"
         id="path184"
         inkscape:connector-curvature="0" /><path
         d="m 8754.27,2487.59 v 0 V 1573 h -43.29 v 871.3 c 0,23.91 19.38,43.29 43.29,43.29"
         style="fill:#a0a0a0;fill-opacity:1;fill-rule:evenodd;stroke:none"
         id="path186"
         inkscape:connector-curvature="0" /><path
         d="m 8754.27,2487.59 c 23.91,0 43.29,-19.38 43.29,-43.29 V 1573 h -43.29 v 914.59"
         style="fill:#535252;fill-opacity:1;fill-rule:evenodd;stroke:none"
         id="path188"
         inkscape:connector-curvature="0" /><path
         d="m 9627.39,2487.59 v 0 V 1573 h -43.29 v 871.3 c 0,23.91 19.38,43.29 43.29,43.29"
         style="fill:#a0a0a0;fill-opacity:1;fill-rule:evenodd;stroke:none"
         id="path190"
         inkscape:connector-curvature="0" /><path
         d="m 9627.39,2487.59 c 23.91,0 43.29,-19.38 43.29,-43.29 V 1573 h -43.29 v 914.59"
         style="fill:#535252;fill-opacity:1;fill-rule:evenodd;stroke:none"
         id="path192"
         inkscape:connector-curvature="0" /><path
         d="m 9757.25,2343.41 v -254.52 c -0.03,-31.39 -25.49,-57.12 -56.79,-57.59 h -132.01 l 177.09,346.78 c 7.33,-9.67 11.7,-21.68 11.71,-34.67"
         style="fill:#b30000;fill-opacity:1;fill-rule:evenodd;stroke:none"
         id="path194"
         inkscape:connector-curvature="0" /><path
         d="M 9745.54,2378.08 9568.45,2031.3 h -188.81 l 188.81,369.71 h 131.14 c 18.7,0 35.4,-9.03 45.95,-22.93"
         style="fill:#ffffff;fill-opacity:1;fill-rule:evenodd;stroke:none"
         id="path196"
         inkscape:connector-curvature="0" /><path
         d="M 9568.45,2401.01 9379.64,2031.3 h -188.81 l 188.81,369.71 h 188.81"
         style="fill:#b30000;fill-opacity:1;fill-rule:evenodd;stroke:none"
         id="path198"
         inkscape:connector-curvature="0" /><path
         d="m 9190.83,2401.01 h 188.81 l -188.81,-369.72 h -188.81 l 188.81,369.72"
         style="fill:#ffffff;fill-opacity:1;fill-rule:evenodd;stroke:none"
         id="path200"
         inkscape:connector-curvature="0" /><path
         d="m 9002.02,2401.01 h 188.81 l -188.81,-369.72 h -188.81 l 188.81,369.72"
         style="fill:#b30000;fill-opacity:1;fill-rule:evenodd;stroke:none"
         id="path202"
         inkscape:connector-curvature="0" /><path
         d="m 8813.21,2401.01 h 188.81 l -188.81,-369.72 h -131.48 c -18.57,0.11 -35.12,9.11 -45.62,22.94 l 177.1,346.78"
         style="fill:#ffffff;fill-opacity:1;fill-rule:evenodd;stroke:none"
         id="path204"
         inkscape:connector-curvature="0" /><path
         d="m 8624.4,2088.96 v 254.39 c 0,31.58 25.73,57.44 57.26,57.66 h 131.55 l -177.09,-346.78 c -7.35,9.67 -11.72,21.71 -11.72,34.73"
         style="fill:#b30000;fill-opacity:1;fill-rule:evenodd;stroke:none"
         id="path206"
         inkscape:connector-curvature="0" /><path
         d="m 9627.39,1746.16 v 0 h -873.12 v 0 c 0,23.91 19.38,43.29 43.29,43.29 h 786.54 c 23.9,0 43.29,-19.38 43.29,-43.29"
         style="fill:#a0a0a0;fill-opacity:1;fill-rule:evenodd;stroke:none"
         id="path208"
         inkscape:connector-curvature="0" /><path
         d="m 9627.39,1746.16 c 0,-23.91 -19.39,-43.29 -43.29,-43.29 h -786.54 c -23.91,0 -43.29,19.38 -43.29,43.29 h 873.12"
         style="fill:#535252;fill-opacity:1;fill-rule:evenodd;stroke:none"
         id="path210"
         inkscape:connector-curvature="0" /><path
         d="m 8505.48,5644.95 h 285.46 v -540.34 h -285.46 v 540.34"
         style="fill:#95b4a6;fill-opacity:1;fill-rule:evenodd;stroke:none"
         id="path212"
         inkscape:connector-curvature="0" /><path
         d="m 11605.3,8653.5 c 67,-52.6 103.3,-133.37 110.2,-226.7 137.7,105.84 299.5,131.27 402.4,50.4 132.1,-103.77 117,-343.27 -33.7,-534.92 -103.9,-132.18 -245.1,-206.82 -366.1,-206.81 l -601.1,0.06 c -69.8,0.01 -134.5,17.84 -186.8,58.96 -48.8,38.34 -81.4,91.66 -98.1,153.87 -10.5,-17.58 -22.4,-34.92 -35.6,-51.78 -117.4,-149.31 -295.9,-204.8 -398.8,-123.96 -102.8,80.84 -91.1,267.42 26.3,416.72 117.3,149.3 295.9,204.81 398.7,123.96 16.1,-12.64 29.4,-27.86 39.9,-45.12 25.5,64.12 61.9,128.15 109.3,188.37 186.4,237.21 470,325.39 633.4,196.95 z m 830.3,-612.48 c 75.2,-59.13 89.1,-167.06 30.9,-241.07 -58.2,-74.02 -166.3,-86.08 -241.6,-26.96 -75.2,59.13 -89,167.07 -30.8,241.08 58.1,74.02 166.3,86.08 241.5,26.95"
         style="fill:#e6e6e6;fill-opacity:1;fill-rule:evenodd;stroke:none"
         id="path214"
         inkscape:connector-curvature="0" /><path
         d="m 10032.9,9286.29 c 109.5,-86.08 133.2,-251.4 75.7,-420.54 70.6,36 144.4,38.28 194.8,-1.39 80.6,-63.29 71.4,-209.36 -20.5,-326.25 -91.9,-116.89 -231.6,-160.34 -312.16,-97.04 -37.36,29.36 -55.4,76.55 -54.83,130.36 -107.4,-100.41 -233.51,-159.39 -345.85,-159.36 l -589.81,0.21 c -36.31,0.01 -69.74,13.32 -97.43,35.08 -97.96,77 -86.77,254.69 24.99,396.88 111.77,142.2 281.79,195.06 379.74,118.06 15.32,-12.04 27.96,-26.54 37.97,-42.98 24.27,61.07 59.02,122.06 104.09,179.41 177.57,225.91 447.68,309.89 603.29,187.56"
         style="fill:#e6e6e6;fill-opacity:1;fill-rule:evenodd;stroke:none"
         id="path216"
         inkscape:connector-curvature="0" /><path
         d="m 7703.58,1229.85 c 50.71,0.64 91.33,-40.92 91.33,-91.29 0,-50.42 -40.87,-91.29 -91.28,-91.29 h -984.02 c -50.42,0 -91.29,40.87 -91.29,91.29 0,50.05 41.27,91.95 91.64,91.28 l 983.62,0.01"
         style="fill:#d8aa50;fill-opacity:1;fill-rule:evenodd;stroke:none"
         id="path218"
         inkscape:connector-curvature="0" /><path
         d="m 8260.12,1229.85 c 50.71,0.64 91.34,-40.92 91.34,-91.29 0,-50.42 -40.87,-91.29 -91.29,-91.29 h -243.69 c -50.42,0 -91.29,40.87 -91.29,91.29 0,50.05 41.26,91.95 91.63,91.28 l 243.3,0.01"
         style="fill:#d8aa50;fill-opacity:1;fill-rule:evenodd;stroke:none"
         id="path220"
         inkscape:connector-curvature="0" /><path
         d="m 3570.89,1572.99 c 261.53,477.71 754.7,729.22 1123.93,729.22 V 1572.99 H 3570.89"
         style="fill:#f4d596;fill-opacity:1;fill-rule:evenodd;stroke:none"
         id="path222"
         inkscape:connector-curvature="0" /><path
         d="m 5818.75,1572.99 c -261.52,477.71 -754.69,729.22 -1123.93,729.22 v -729.22 h 1123.93"
         style="fill:#d8aa50;fill-opacity:1;fill-rule:evenodd;stroke:none"
         id="path224"
         inkscape:connector-curvature="0" /><path
         d="m 4382.82,1909.53 c 20.21,0 36.59,-16.39 36.59,-36.6 0,-20.2 -16.38,-36.59 -36.59,-36.59 -20.21,0 -36.59,16.39 -36.59,36.59 0,20.21 16.38,36.6 36.59,36.6"
         style="fill:#d8aa50;fill-opacity:1;fill-rule:evenodd;stroke:none"
         id="path226"
         inkscape:connector-curvature="0" /><path
         d="m 4179.07,2026.75 c 12.98,0 23.5,-10.52 23.5,-23.5 0,-12.97 -10.52,-23.49 -23.5,-23.49 -12.98,0 -23.5,10.52 -23.5,23.49 0,12.98 10.52,23.5 23.5,23.5"
         style="fill:#d8aa50;fill-opacity:1;fill-rule:evenodd;stroke:none"
         id="path228"
         inkscape:connector-curvature="0" /><path
         d="m 4501.7,1738.08 c 27.5,0 49.79,-22.29 49.79,-49.79 0,-27.49 -22.29,-49.79 -49.79,-49.79 -27.49,0 -49.79,22.3 -49.79,49.79 0,27.5 22.3,49.79 49.79,49.79"
         style="fill:#d8aa50;fill-opacity:1;fill-rule:evenodd;stroke:none"
         id="path230"
         inkscape:connector-curvature="0" /><path
         d="m 4100.34,1724.07 c 19.44,0 35.2,-15.77 35.2,-35.21 0,-19.44 -15.76,-35.2 -35.2,-35.2 -19.44,0 -35.21,15.76 -35.21,35.2 0,19.44 15.77,35.21 35.21,35.21"
         style="fill:#d8aa50;fill-opacity:1;fill-rule:evenodd;stroke:none"
         id="path232"
         inkscape:connector-curvature="0" /><path
         d="m 4857.5,1793.23 c 19.45,0 35.21,-15.76 35.21,-35.21 0,-19.44 -15.76,-35.2 -35.21,-35.2 -19.44,0 -35.2,15.76 -35.2,35.2 0,19.45 15.76,35.21 35.2,35.21"
         style="fill:#f4d596;fill-opacity:1;fill-rule:evenodd;stroke:none"
         id="path234"
         inkscape:connector-curvature="0" /><path
         d="m 5009.08,1712.31 c 13.3,0 24.07,-10.77 24.07,-24.06 0,-13.29 -10.77,-24.07 -24.07,-24.07 -13.29,0 -24.06,10.78 -24.06,24.07 0,13.29 10.77,24.06 24.06,24.06"
         style="fill:#f4d596;fill-opacity:1;fill-rule:evenodd;stroke:none"
         id="path236"
         inkscape:connector-curvature="0" /><path
         d="m 4160.05,1791.18 c 12.98,0 23.5,-10.52 23.5,-23.49 0,-12.98 -10.52,-23.49 -23.5,-23.49 -12.97,0 -23.49,10.51 -23.49,23.49 0,12.97 10.52,23.49 23.49,23.49"
         style="fill:#d8aa50;fill-opacity:1;fill-rule:evenodd;stroke:none"
         id="path238"
         inkscape:connector-curvature="0" /><path
         d="m 4325.5,1716.6 c 12.98,0 23.5,-10.52 23.5,-23.5 0,-12.97 -10.52,-23.49 -23.5,-23.49 -12.98,0 -23.5,10.52 -23.5,23.49 0,12.98 10.52,23.5 23.5,23.5"
         style="fill:#d8aa50;fill-opacity:1;fill-rule:evenodd;stroke:none"
         id="path240"
         inkscape:connector-curvature="0" /><path
         d="m 3887.63,1768.38 c 12.98,0 23.5,-10.52 23.5,-23.49 0,-12.98 -10.52,-23.5 -23.5,-23.5 -12.97,0 -23.49,10.52 -23.49,23.5 0,12.97 10.52,23.49 23.49,23.49"
         style="fill:#d8aa50;fill-opacity:1;fill-rule:evenodd;stroke:none"
         id="path242"
         inkscape:connector-curvature="0" /><path
         d="m 7610.98,4333.41 -21.41,-139.52 c 5.97,-6.57 10.88,-14.32 14.31,-23.09 15.05,-38.48 -3.94,-81.87 -42.42,-96.92 -38.48,-15.05 -81.87,3.94 -96.92,42.42 -0.53,1.35 -1.01,2.72 -1.46,4.08 l -633.37,-3.74 195.47,371.23 c 79.3,115.04 226.58,139.24 337.14,42.8 l 79.64,-108.1 59.86,13.18 c 7.25,7.52 16.21,13.64 26.58,17.7 38.48,15.05 81.87,-3.94 96.92,-42.42 10.71,-27.38 4.18,-57.24 -14.34,-77.62"
         style="fill:#383838;fill-opacity:1;fill-rule:evenodd;stroke:none"
         id="path244"
         inkscape:connector-curvature="0" /><path
         d="m 6732.09,3993.62 150.64,274.56 30.83,7.71 -83.85,-159.25 81.73,0.48 -78.16,-89.77 -101.19,-33.73"
         style="fill:#242424;fill-opacity:1;fill-rule:evenodd;stroke:none"
         id="path246"
         inkscape:connector-curvature="0" /><path
         d="m 8020.82,4687.4 -99.77,-56.86 c 12.3,-8.21 22.31,-20.13 28.11,-34.95 2.97,-7.61 4.61,-15.4 5.04,-23.13 l 99.73,56.85 -33.11,58.09"
         style="fill:#ebebeb;fill-opacity:1;fill-rule:evenodd;stroke:none"
         id="path248"
         inkscape:connector-curvature="0" /><path
         d="m 7630.37,4387.75 180.18,102.79 12.19,29.03 c -5.35,6.22 -9.76,13.44 -12.92,21.51 -2.98,7.62 -4.62,15.42 -5.04,23.16 l -207.43,-118.35 c 12.24,-8.2 22.19,-20.09 27.97,-34.86 2.99,-7.65 4.64,-15.5 5.05,-23.28"
         style="fill:#d7a627;fill-opacity:1;fill-rule:evenodd;stroke:none"
         id="path250"
         inkscape:connector-curvature="0" /><path
         d="m 9437.09,4971.23 220.98,-166.93 40.25,53.4 -220.91,166.89 c -5.7,-15.93 -15.09,-30.81 -28.16,-43.28 -3.87,-3.69 -7.94,-7.04 -12.16,-10.08"
         style="fill:#ebebeb;fill-opacity:1;fill-rule:evenodd;stroke:none"
         id="path252"
         inkscape:connector-curvature="0" /><path
         d="M 9017.75,4657.77 7595.7,4100.94 c 13.68,19.78 17.59,45.79 8.18,69.86 -3.43,8.77 -8.34,16.52 -14.31,23.09 l 9.83,64.12 154.02,96.55 -13.19,-31.4 c -7.48,-0.5 -15.01,-2.12 -22.36,-5 -38.48,-15.05 -57.46,-58.44 -42.42,-96.92 15.06,-38.47 58.44,-57.47 96.93,-42.41 38.47,15.05 57.46,58.44 42.41,96.92 -3.16,8.07 -7.57,15.28 -12.91,21.5 l 50,119.04 761.41,477.35 400.89,251.33 275.51,-5.97 c -40.28,-43.14 -40.36,-110.75 0.9,-153.99 19.44,-20.36 44.7,-31.82 70.7,-34.25 l -203.31,-188.93 -93.34,43.66 c -27.83,16.76 -64.46,13.91 -89.46,-9.3 -30.28,-28.12 -32.04,-75.45 -3.93,-105.73 4.96,-5.33 10.53,-9.78 16.48,-13.34 v -0.01 l 30.02,-19.34"
         style="fill:#d7a627;fill-opacity:1;fill-rule:evenodd;stroke:none"
         id="path254"
         inkscape:connector-curvature="0" /><path
         d="m 10905,3159 495.3,30.31 c 56.4,3.45 92,-25.33 100.4,-72.23 l 3.7,-20.78 -696.3,-21.59 6.6,20.66 c 10.8,33.32 45.1,60.86 90.3,63.63"
         style="fill:#353635;fill-opacity:1;fill-rule:evenodd;stroke:none"
         id="path256"
         inkscape:connector-curvature="0" /><path
         d="m 10920.3,2067.99 h 759.3 v 58.12 h -759.3 v -58.12"
         style="fill:#000000;fill-opacity:1;fill-rule:evenodd;stroke:none"
         id="path258"
         inkscape:connector-curvature="0" /><path
         d="m 12696.1,2241.45 v -40.34 c 0,-41.25 -33.8,-75 -75,-75 h -1837.5 c -41.3,0 -71.2,33.93 -75,75 l -3.8,40.34 h 1991.3"
         style="fill:#94671f;fill-opacity:1;fill-rule:evenodd;stroke:none"
         id="path260"
         inkscape:connector-curvature="0" /><path
         d="m 11574.1,2707.9 h 964.7 c 81.9,0.6 117.1,-47.35 130.5,-142.38 l 26.8,-236.37 v -87.7 h -1122 v 466.45"
         style="fill:#d7a627;fill-opacity:1;fill-rule:evenodd;stroke:none"
         id="path262"
         inkscape:connector-curvature="0" /><path
         d="m 12159.9,2647 h 329.2 c 23.2,0 40.2,-19.06 42.1,-42.18 l 18.8,-226.88 c 1.9,-23.12 -19,-42.19 -42.2,-42.19 h -461.4 l 113.5,311.25"
         style="fill:#242424;fill-opacity:1;fill-rule:evenodd;stroke:none"
         id="path264"
         inkscape:connector-curvature="0" /><path
         d="m 11789.6,2707.9 h 392.5 L 12012,2241.45 h -392.5 l 170.1,466.45"
         style="fill:#f2cd42;fill-opacity:1;fill-rule:evenodd;stroke:none"
         id="path266"
         inkscape:connector-curvature="0" /><path
         d="m 11999.7,2647 h 160.2 l -113.5,-311.25 h -46.7 c -23.2,0 -42.2,18.98 -42.2,42.19 v 226.88 c 0,23.2 19,42.18 42.2,42.18"
         style="fill:#353635;fill-opacity:1;fill-rule:evenodd;stroke:none"
         id="path268"
         inkscape:connector-curvature="0" /><path
         d="m 11770.1,2820.89 h 85.8 V 2707.9 h -85.8 v 112.99"
         style="fill:#353635;fill-opacity:1;fill-rule:evenodd;stroke:none"
         id="path270"
         inkscape:connector-curvature="0" /><path
         d="m 11734.5,2820.89 v 55.96 h 157 v -55.96 h -157"
         style="fill:#242424;fill-opacity:1;fill-rule:evenodd;stroke:none"
         id="path272"
         inkscape:connector-curvature="0" /><path
         d="m 11891.5,2876.85 c 0,30.9 -35.1,55.95 -78.5,55.95 -43.3,0 -78.5,-25.05 -78.5,-55.95 h 157"
         style="fill:#353635;fill-opacity:1;fill-rule:evenodd;stroke:none"
         id="path274"
         inkscape:connector-curvature="0" /><path
         d="m 10808.2,3074.71 -0.2,6.72 -101.1,-3.23 11.3,-356.92 c 19.4,112.33 51.1,233.29 89.9,353.43 h 0.1"
         style="fill:#4e4e4e;fill-opacity:1;fill-rule:evenodd;stroke:none"
         id="path276"
         inkscape:connector-curvature="0" /><path
         d="m 10791.6,3080.91 -27,658.13 c -21.6,-7.7 -45,-8.56 -66.8,-2.73 l 26.9,-657.54 66.9,2.14"
         style="fill:#cbcbcb;fill-opacity:1;fill-rule:evenodd;stroke:none"
         id="path278"
         inkscape:connector-curvature="0" /><path
         d="m 9064.64,4805.49 1503.66,-703.43 c 391.7,-183.45 565.1,-500.4 607.9,-857.78 l 9.8,-68.18 -281.9,-17.77 -0.6,1.84 c -30.2,77.68 -72.8,152.77 -124.4,224.49 l -14.5,354.38 c 13.9,4.97 27,12.77 38.5,23.45 45.4,42.17 48.1,113.17 5.9,158.58 -42.2,45.41 -113.2,48.04 -158.6,5.87 -45.4,-42.16 -48,-113.16 -5.9,-158.57 15,-16.08 33.5,-26.8 53.3,-32.06 l 10.7,-261.88 c -136,159.34 -312.7,298.74 -487.6,408.45 l -1233.17,794.23 v 0.01 c -5.95,3.56 -11.52,8.01 -16.48,13.34 -28.11,30.28 -26.35,77.61 3.93,105.73 25,23.21 61.63,26.06 89.46,9.3 z m -4.32,-100.01 c -19.82,-18.91 -51.22,-18.18 -70.13,1.64 -18.92,19.82 -18.19,51.22 1.64,70.13 19.81,18.92 51.21,18.19 70.13,-1.64 18.92,-19.81 18.18,-51.21 -1.64,-70.13"
         style="fill:#f2cd42;fill-opacity:1;fill-rule:evenodd;stroke:none"
         id="path280"
         inkscape:connector-curvature="0" /><path
         d="m 9647.71,4790.57 662.89,-499.69 33.3,41.01 1.5,1.82 v 0.02 l 0.2,0.15 v 0 c 2.4,2.96 5.1,5.79 8,8.48 9.4,8.68 20,15.08 31.3,19.23 l -676.29,509.77 -60.9,-80.79"
         style="fill:#4e4e4e;fill-opacity:1;fill-rule:evenodd;stroke:none"
         id="path282"
         inkscape:connector-curvature="0" /><path
         d="m 10485.8,4337.47 c 1.6,-1.75 3.2,-3.54 4.6,-5.38 l 319,-380.26 v 0.01 c -69.1,56.64 -149.1,107.11 -241.1,150.22 l -297.9,139.35 73.5,90.48 1.5,1.82 v 0.02 l 0.2,0.15 v 0 c 2.4,2.96 5.1,5.79 8,8.48 37.9,35.14 97,32.95 132.2,-4.89 z m -32.2,-29.88 c 18.7,-20.07 17.5,-51.46 -2.6,-70.1 -20.1,-18.63 -51.4,-17.47 -70.1,2.6 -18.6,20.07 -17.5,51.46 2.6,70.1 20.1,18.64 51.5,17.47 70.1,-2.6"
         style="fill:#d7a627;fill-opacity:1;fill-rule:evenodd;stroke:none"
         id="path284"
         inkscape:connector-curvature="0" /><path
         d="m 7809.82,4541.08 c -15.05,38.48 3.94,81.87 42.42,96.92 38.47,15.05 81.87,-3.94 96.92,-42.41 15.05,-38.48 -3.94,-81.88 -42.42,-96.93 -38.47,-15.05 -81.86,3.94 -96.92,42.42 z m 36.68,14.35 c -7.12,18.22 1.87,38.77 20.08,45.89 18.22,7.13 38.77,-1.87 45.9,-20.08 7.13,-18.22 -1.86,-38.77 -20.09,-45.9 -18.21,-7.12 -38.76,1.87 -45.89,20.09"
         style="fill:#94671f;fill-opacity:1;fill-rule:evenodd;stroke:none"
         id="path286"
         inkscape:connector-curvature="0" /><path
         d="m 8530.38,4997.58 -518.05,-295.28 50.1,-87.89 495.9,282.65 -21.39,51.62 c -1.44,2.94 -2.69,5.95 -3.74,9.02 l -0.02,0.08 v 0.01 c -4.39,12.84 -5.3,26.59 -2.8,39.79"
         style="fill:#4e4e4e;fill-opacity:1;fill-rule:evenodd;stroke:none"
         id="path288"
         inkscape:connector-curvature="0" /><path
         d="m 8536.94,4948.68 c -1.44,2.94 -2.69,5.95 -3.74,9.02 l -0.02,0.08 v 0.01 c -9.51,27.85 -2.74,59.92 19.95,81.57 10.7,10.21 23.56,16.78 37.03,19.74 l 424.02,85.87 -443.39,-277.98 z m 104.24,-1.57 c -19.82,-18.92 -51.22,-18.19 -70.13,1.63 -18.92,19.82 -18.19,51.22 1.63,70.14 19.82,18.91 51.22,18.17 70.13,-1.65 18.92,-19.81 18.19,-51.21 -1.63,-70.12"
         style="fill:#f2cd42;fill-opacity:1;fill-rule:evenodd;stroke:none"
         id="path290"
         inkscape:connector-curvature="0" /><path
         d="m 7801.88,4297.25 82.51,196.42 c -23.45,-1.54 -46.38,8.13 -61.65,25.9 l -82.51,-196.41 c 23.45,1.54 46.38,-8.14 61.65,-25.91"
         style="fill:#f2cd42;fill-opacity:1;fill-rule:evenodd;stroke:none"
         id="path292"
         inkscape:connector-curvature="0" /><path
         d="m 7510.09,4403.36 c 10.82,25.17 39.98,36.8 65.15,25.98 25.16,-10.82 36.79,-39.99 25.97,-65.15 -10.82,-25.16 -39.98,-36.79 -65.15,-25.97 -25.16,10.82 -36.79,39.98 -25.97,65.14"
         style="fill:#242424;fill-opacity:1;fill-rule:evenodd;stroke:none"
         id="path294"
         inkscape:connector-curvature="0" /><path
         d="m 7488.65,4163.13 c 10.81,25.16 39.98,36.79 65.14,25.98 25.16,-10.82 36.79,-39.99 25.97,-65.15 -10.81,-25.16 -39.98,-36.79 -65.14,-25.97 -25.16,10.81 -36.79,39.98 -25.97,65.14"
         style="fill:#242424;fill-opacity:1;fill-rule:evenodd;stroke:none"
         id="path296"
         inkscape:connector-curvature="0" /><path
         d="m 10809,3921.07 c 42.2,-45.41 39.5,-116.41 -5.9,-158.58 -45.4,-42.17 -116.4,-39.54 -158.6,5.88 -42.1,45.41 -39.5,116.41 5.9,158.57 45.4,42.17 116.4,39.54 158.6,-5.87 z m -45.9,-42.6 c 18.7,-20.08 17.5,-51.46 -2.6,-70.1 -20.1,-18.64 -51.4,-17.48 -70.1,2.6 -18.6,20.07 -17.5,51.46 2.6,70.09 20.1,18.65 51.5,17.48 70.1,-2.59"
         style="fill:#94671f;fill-opacity:1;fill-rule:evenodd;stroke:none"
         id="path298"
         inkscape:connector-curvature="0" /><path
         d="m 10763.1,3878.47 c 18.7,-20.08 17.5,-51.46 -2.6,-70.1 -20.1,-18.64 -51.4,-17.48 -70.1,2.59 -18.6,20.08 -17.5,51.47 2.6,70.1 20.1,18.65 51.5,17.48 70.1,-2.59"
         style="fill:#f2cd42;fill-opacity:1;fill-rule:evenodd;stroke:none"
         id="path300"
         inkscape:connector-curvature="0" /><path
         d="m 10453.6,4307.59 c 18.7,-20.07 17.5,-51.46 -2.6,-70.1 -20.1,-18.64 -51.4,-17.47 -70.1,2.6 -18.6,20.07 -17.5,51.46 2.6,70.1 20.1,18.64 51.5,17.47 70.1,-2.6"
         style="fill:#94671f;fill-opacity:1;fill-rule:evenodd;stroke:none"
         id="path302"
         inkscape:connector-curvature="0" /><path
         d="m 9060.32,4705.48 c -19.82,-18.91 -51.22,-18.18 -70.13,1.64 -18.92,19.82 -18.19,51.22 1.63,70.13 19.82,18.92 51.22,18.19 70.14,-1.63 18.91,-19.82 18.18,-51.22 -1.64,-70.14"
         style="fill:#94671f;fill-opacity:1;fill-rule:evenodd;stroke:none"
         id="path304"
         inkscape:connector-curvature="0" /><path
         d="m 9449.25,4981.31 c -44.84,-42.79 -115.87,-41.13 -158.66,3.7 -42.78,44.83 -41.13,115.87 3.71,158.65 44.83,42.79 115.86,41.13 158.65,-3.7 42.79,-44.83 41.13,-115.86 -3.7,-158.65 z m -41.13,114.92 c 18.64,-20.07 17.48,-51.45 -2.6,-70.09 -20.07,-18.64 -51.46,-17.48 -70.1,2.59 -18.63,20.08 -17.47,51.46 2.6,70.1 20.08,18.64 51.46,17.48 70.1,-2.6"
         style="fill:#94671f;fill-opacity:1;fill-rule:evenodd;stroke:none"
         id="path306"
         inkscape:connector-curvature="0" /><path
         d="m 9408.12,5096.23 c 18.64,-20.07 17.48,-51.45 -2.6,-70.09 -20.07,-18.64 -51.46,-17.48 -70.1,2.59 -18.64,20.08 -17.47,51.46 2.6,70.1 20.07,18.64 51.46,17.48 70.1,-2.6"
         style="fill:#f2cd42;fill-opacity:1;fill-rule:evenodd;stroke:none"
         id="path308"
         inkscape:connector-curvature="0" /><path
         d="m 8641.18,4947.11 c -19.82,-18.92 -51.22,-18.19 -70.14,1.63 -18.91,19.82 -18.18,51.22 1.64,70.14 19.82,18.91 51.22,18.17 70.13,-1.65 18.92,-19.81 18.19,-51.21 -1.63,-70.12"
         style="fill:#94671f;fill-opacity:1;fill-rule:evenodd;stroke:none"
         id="path310"
         inkscape:connector-curvature="0" /><path
         d="m 7846.5,4555.43 c -7.12,18.21 1.86,38.77 20.09,45.89 18.21,7.13 38.76,-1.87 45.89,-20.09 7.13,-18.21 -1.87,-38.76 -20.09,-45.89 -18.21,-7.12 -38.76,1.87 -45.89,20.09"
         style="fill:#f2cd42;fill-opacity:1;fill-rule:evenodd;stroke:none"
         id="path312"
         inkscape:connector-curvature="0" /><path
         d="m 7675.45,4221.24 c -15.04,38.48 3.94,81.87 42.42,96.92 38.48,15.05 81.87,-3.94 96.92,-42.41 15.05,-38.48 -3.94,-81.87 -42.41,-96.92 -38.49,-15.06 -81.87,3.94 -96.93,42.41 z m 94.14,1.62 c -14.16,-13.51 -36.59,-12.99 -50.1,1.17 -13.51,14.15 -12.99,36.58 1.17,50.1 14.16,13.51 36.58,12.98 50.09,-1.17 13.52,-14.16 12.99,-36.59 -1.16,-50.1"
         style="fill:#94671f;fill-opacity:1;fill-rule:evenodd;stroke:none"
         id="path314"
         inkscape:connector-curvature="0" /><path
         d="m 7769.59,4222.86 c -14.16,-13.51 -36.59,-12.99 -50.1,1.17 -13.51,14.15 -12.99,36.58 1.17,50.09 14.16,13.52 36.58,12.99 50.09,-1.17 13.52,-14.15 12.99,-36.58 -1.16,-50.09"
         style="fill:#f2cd42;fill-opacity:1;fill-rule:evenodd;stroke:none"
         id="path316"
         inkscape:connector-curvature="0" /><path
         d="m 11247,2241.45 h -542.2 c -6.8,98.14 -9.5,192.98 -6.8,290.87 l 690.4,138.37 c -84.4,-16.9 -135.2,-65.2 -135.2,-140.8 z m 327.1,466.45 v 0.01 -0.01"
         style="fill:#2d3e43;fill-opacity:1;fill-rule:evenodd;stroke:none"
         id="path318"
         inkscape:connector-curvature="0" /><path
         d="m 10698,2532.32 c 4.4,157.35 48.2,350.92 110.1,542.39 l 696.3,21.59 69.7,-388.39 -876.1,-175.59"
         style="fill:#4f7380;fill-opacity:1;fill-rule:evenodd;stroke:none"
         id="path320"
         inkscape:connector-curvature="0" /><path
         d="m 11058,3082.57 145.2,4.39 -178.3,-489.12 -155,-31.07 188.1,515.8"
         style="fill:#74a6aa;fill-opacity:1;fill-rule:evenodd;stroke:none"
         id="path322"
         inkscape:connector-curvature="0" /><path
         d="m 10956.8,3079.35 64,1.96 -190.5,-522.47 -68.3,-13.69 194.8,534.2"
         style="fill:#87c3c8;fill-opacity:1;fill-rule:evenodd;stroke:none"
         id="path324"
         inkscape:connector-curvature="0" /><path
         d="m 10751.3,2241.45 h 143.6 l 130,356.39 -155,-31.07 -118.6,-325.32"
         style="fill:#406061;fill-opacity:1;fill-rule:evenodd;stroke:none"
         id="path326"
         inkscape:connector-curvature="0" /><path
         d="m 10704.8,2241.45 h 9.8 l 115.7,317.39 -15.2,-3.04 -53.1,-10.65 -63.7,-174.86 c 1.3,-42.66 3.5,-85.43 6.5,-128.84"
         style="fill:#517c74;fill-opacity:1;fill-rule:evenodd;stroke:none"
         id="path328"
         inkscape:connector-curvature="0" /><path
         d="M 11574.1,2241.45 H 11247 l 6.2,288.44 c 0,75.6 50.8,123.9 135.2,140.8 l 185.7,37.21 v -466.45"
         style="fill:#f2cd42;fill-opacity:1;fill-rule:evenodd;stroke:none"
         id="path330"
         inkscape:connector-curvature="0" /><path
         d="m 10292.7,1573 z m -19.9,430.23 667.2,64.75 719.9,0.01 667.2,-64.76 c 109.3,-10.48 194.7,-102.56 194.7,-214.62 0,-119.08 -96.5,-215.62 -215.6,-215.62 l -2013.5,0.01 c -118.6,0.51 -214.7,96.84 -214.7,215.61 0,112.06 85.5,204.13 194.8,214.62"
         style="fill:#1a1a1a;fill-opacity:1;fill-rule:evenodd;stroke:none"
         id="path332"
         inkscape:connector-curvature="0" /><path
         d="m 10292.7,1573 c -118.6,0.51 -214.7,96.84 -214.7,215.62 0,112.05 85.5,204.13 194.8,214.61 v 0 0 l 667.2,64.76 h 719.9 v 0 l 667.2,-64.75 v -0.01 0 c 109.3,-10.48 194.7,-102.55 194.7,-214.61 0,-119.09 -96.5,-215.63 -215.6,-215.63 h -2012.5 -1 z m 2013.5,62.33 c 84.7,0 153.3,68.63 153.3,153.29 0,79.66 -60.8,145.12 -138.5,152.57 v -0.01 l -664.1,64.46 v 0 H 10943 l -664.1,-64.46 v 0.01 c -77.7,-7.45 -138.5,-72.91 -138.5,-152.57 0,-84.58 68.5,-153.16 153.1,-153.28 h 2012.7 v -0.01"
         style="fill:#353635;fill-opacity:1;fill-rule:evenodd;stroke:none"
         id="path334"
         inkscape:connector-curvature="0" /><path
         d="m 11656.9,2005.64 c 33.8,0 61.3,-27.45 61.3,-61.31 0,-33.86 -27.5,-61.31 -61.3,-61.31 -33.9,0 -61.3,27.45 -61.3,61.31 0,33.86 27.4,61.31 61.3,61.31"
         style="fill:#b7b7b7;fill-opacity:1;fill-rule:evenodd;stroke:none"
         id="path336"
         inkscape:connector-curvature="0" /><path
         d="m 11299.9,1757.96 c 33.9,0 61.4,-27.44 61.4,-61.31 0,-33.86 -27.5,-61.31 -61.4,-61.31 -33.8,0 -61.3,27.45 -61.3,61.31 0,33.87 27.5,61.31 61.3,61.31"
         style="fill:#b7b7b7;fill-opacity:1;fill-rule:evenodd;stroke:none"
         id="path338"
         inkscape:connector-curvature="0" /><path
         d="m 11489.6,1757.96 c 33.8,0 61.3,-27.44 61.3,-61.31 0,-33.86 -27.5,-61.31 -61.3,-61.31 -33.9,0 -61.4,27.45 -61.4,61.31 0,33.87 27.5,61.31 61.4,61.31"
         style="fill:#b7b7b7;fill-opacity:1;fill-rule:evenodd;stroke:none"
         id="path340"
         inkscape:connector-curvature="0" /><path
         d="m 10943,2005.64 c 33.9,0 61.3,-27.45 61.3,-61.31 0,-33.86 -27.4,-61.31 -61.3,-61.31 -33.9,0 -61.3,27.45 -61.3,61.31 0,33.86 27.4,61.31 61.3,61.31"
         style="fill:#b7b7b7;fill-opacity:1;fill-rule:evenodd;stroke:none"
         id="path342"
         inkscape:connector-curvature="0" /><path
         d="m 11679.2,1757.96 c 33.8,0 61.3,-27.44 61.3,-61.31 0,-33.86 -27.5,-61.31 -61.3,-61.31 -33.9,0 -61.4,27.45 -61.4,61.31 0,33.87 27.5,61.31 61.4,61.31"
         style="fill:#b7b7b7;fill-opacity:1;fill-rule:evenodd;stroke:none"
         id="path344"
         inkscape:connector-curvature="0" /><path
         d="m 11868.8,1757.96 c 33.8,0 61.3,-27.44 61.3,-61.31 0,-33.86 -27.5,-61.31 -61.3,-61.31 -33.9,0 -61.3,27.45 -61.3,61.31 0,33.87 27.4,61.31 61.3,61.31"
         style="fill:#b7b7b7;fill-opacity:1;fill-rule:evenodd;stroke:none"
         id="path346"
         inkscape:connector-curvature="0" /><path
         d="m 12058.4,1757.96 c 33.8,0 61.3,-27.44 61.3,-61.31 0,-33.86 -27.5,-61.31 -61.3,-61.31 -33.9,0 -61.3,27.45 -61.3,61.31 0,33.87 27.4,61.31 61.3,61.31"
         style="fill:#b7b7b7;fill-opacity:1;fill-rule:evenodd;stroke:none"
         id="path348"
         inkscape:connector-curvature="0" /><path
         d="m 10541.5,1757.97 c 33.9,0 61.3,-27.45 61.3,-61.31 0,-33.87 -27.4,-61.32 -61.3,-61.32 -33.8,0 -61.3,27.45 -61.3,61.32 0,33.86 27.5,61.31 61.3,61.31"
         style="fill:#b7b7b7;fill-opacity:1;fill-rule:evenodd;stroke:none"
         id="path350"
         inkscape:connector-curvature="0" /><path
         d="m 10731.1,1757.97 c 33.9,0 61.3,-27.45 61.3,-61.31 0,-33.87 -27.4,-61.32 -61.3,-61.32 -33.8,0 -61.3,27.45 -61.3,61.32 0,33.86 27.5,61.31 61.3,61.31"
         style="fill:#b7b7b7;fill-opacity:1;fill-rule:evenodd;stroke:none"
         id="path352"
         inkscape:connector-curvature="0" /><path
         d="m 10920.7,1757.97 c 33.9,0 61.3,-27.45 61.3,-61.31 0,-33.87 -27.4,-61.32 -61.3,-61.32 -33.8,0 -61.3,27.45 -61.3,61.32 0,33.86 27.5,61.31 61.3,61.31"
         style="fill:#b7b7b7;fill-opacity:1;fill-rule:evenodd;stroke:none"
         id="path354"
         inkscape:connector-curvature="0" /><path
         d="m 11110.3,1757.97 c 33.9,0 61.4,-27.45 61.4,-61.31 0,-33.87 -27.5,-61.32 -61.4,-61.32 -33.8,0 -61.3,27.45 -61.3,61.32 0,33.86 27.5,61.31 61.3,61.31"
         style="fill:#b7b7b7;fill-opacity:1;fill-rule:evenodd;stroke:none"
         id="path356"
         inkscape:connector-curvature="0" /><path
         d="m 10293.7,1918.21 c 71.5,0 129.6,-58.02 129.6,-129.59 0,-71.58 -58.1,-129.6 -129.6,-129.6 -71.6,0 -129.6,58.02 -129.6,129.6 0,71.57 58,129.59 129.6,129.59"
         style="fill:#b7b7b7;fill-opacity:1;fill-rule:evenodd;stroke:none"
         id="path358"
         inkscape:connector-curvature="0" /><path
         d="m 12306.2,1918.21 c 71.6,0 129.6,-58.02 129.6,-129.59 0,-71.58 -58,-129.6 -129.6,-129.6 -71.6,0 -129.6,58.02 -129.6,129.6 0,71.57 58,129.59 129.6,129.59"
         style="fill:#b7b7b7;fill-opacity:1;fill-rule:evenodd;stroke:none"
         id="path360"
         inkscape:connector-curvature="0" /><path
         d="m 12337.6,1874.73 c 35.2,-12.82 60.3,-46.53 60.3,-86.11 0,-50.61 -41.1,-91.64 -91.7,-91.64 -11,0 -21.6,1.95 -31.4,5.52 l 62.8,172.23"
         style="fill:#4b4b4b;fill-opacity:1;fill-rule:evenodd;stroke:none"
         id="path362"
         inkscape:connector-curvature="0" /><path
         d="m 10393.2,1705.64 h 1031 l 72.4,198.75 h -1144.7 c 42.4,-21.34 71.4,-65.16 71.4,-115.77 0,-31.57 -11.3,-60.49 -30.1,-82.98"
         style="fill:#686868;fill-opacity:1;fill-rule:evenodd;stroke:none"
         id="path364"
         inkscape:connector-curvature="0" /><path
         d="m 12306.2,1880.25 c 11.1,0 21.6,-1.95 31.4,-5.52 l -62.8,-172.23 c -35.1,12.82 -60.2,46.54 -60.2,86.12 0,50.61 41,91.63 91.6,91.63"
         style="fill:#686868;fill-opacity:1;fill-rule:evenodd;stroke:none"
         id="path366"
         inkscape:connector-curvature="0" /><path
         d="m 10325.1,1874.73 c 35.1,-12.82 60.2,-46.53 60.2,-86.11 0,-50.61 -41,-91.64 -91.6,-91.64 -11.1,0 -21.6,1.95 -31.4,5.52 l 62.8,172.23"
         style="fill:#4b4b4b;fill-opacity:1;fill-rule:evenodd;stroke:none"
         id="path368"
         inkscape:connector-curvature="0" /><path
         d="m 10293.7,1880.25 c 11,0 21.6,-1.95 31.4,-5.52 l -62.8,-172.23 c -35.2,12.82 -60.3,46.54 -60.3,86.12 0,50.61 41.1,91.63 91.7,91.63"
         style="fill:#686868;fill-opacity:1;fill-rule:evenodd;stroke:none"
         id="path370"
         inkscape:connector-curvature="0" /><path
         d="m 11424.2,1705.64 h 782.5 c -18.8,22.49 -30.1,51.41 -30.1,82.98 0,50.61 29,94.43 71.3,115.77 h -751.3 l -72.4,-198.75"
         style="fill:#4b4b4b;fill-opacity:1;fill-rule:evenodd;stroke:none"
         id="path372"
         inkscape:connector-curvature="0" /><path
         d="m 8582.52,4487.35 -705.29,-276.17 104.44,286.48 631.62,395.98 152.11,95.36 -182.88,-501.65"
         style="fill:#f2cd42;fill-opacity:1;fill-rule:evenodd;stroke:none"
         id="path374"
         inkscape:connector-curvature="0" /><path
         d="m 12083.2,3323.16 c 82.1,0 148.6,-66.53 148.6,-148.59 0,-82.07 -66.5,-148.6 -148.6,-148.6 -82.1,0 -148.6,66.53 -148.6,148.6 0,82.06 66.5,148.59 148.6,148.59"
         style="fill:#c1ddd4;fill-opacity:1;fill-rule:evenodd;stroke:none"
         id="path376"
         inkscape:connector-curvature="0" /><path
         d="m 11903.3,3596.91 c 99.4,0 179.9,-80.53 179.9,-179.88 0,-99.35 -80.5,-179.89 -179.9,-179.89 -99.3,0 -179.9,80.54 -179.9,179.89 0,99.35 80.6,179.88 179.9,179.88"
         style="fill:#c1ddd4;fill-opacity:1;fill-rule:evenodd;stroke:none"
         id="path378"
         inkscape:connector-curvature="0" /><path
         d="m 12169.2,4134.64 c 186.8,0 338.3,-151.45 338.3,-338.28 0,-186.82 -151.5,-338.27 -338.3,-338.27 -186.8,0 -338.3,151.45 -338.3,338.27 0,186.83 151.5,338.28 338.3,338.28"
         style="fill:#c1ddd4;fill-opacity:1;fill-rule:evenodd;stroke:none"
         id="path380"
         inkscape:connector-curvature="0" /><path
         d="m 5099.34,1572.99 c 311.21,568.47 898.08,867.76 1337.47,867.76 V 1572.99 H 5099.34"
         style="fill:#f4d596;fill-opacity:1;fill-rule:evenodd;stroke:none"
         id="path382"
         inkscape:connector-curvature="0" /><path
         d="m 7774.27,1572.99 c -311.21,568.47 -898.07,867.76 -1337.46,867.76 v -867.76 h 1337.46"
         style="fill:#d8aa50;fill-opacity:1;fill-rule:evenodd;stroke:none"
         id="path384"
         inkscape:connector-curvature="0" /><path
         d="m 6561.42,1782.91 c 28.49,0 51.6,-23.1 51.6,-51.6 0,-28.5 -23.11,-51.6 -51.6,-51.6 -28.5,0 -51.6,23.1 -51.6,51.6 0,28.5 23.1,51.6 51.6,51.6"
         style="fill:#f4d596;fill-opacity:1;fill-rule:evenodd;stroke:none"
         id="path386"
         inkscape:connector-curvature="0" /><path
         d="m 7103.97,1781.57 c 17.8,0 32.23,-14.43 32.23,-32.22 0,-17.8 -14.43,-32.23 -32.23,-32.23 -17.79,0 -32.22,14.43 -32.22,32.23 0,17.79 14.43,32.22 32.22,32.22"
         style="fill:#f4d596;fill-opacity:1;fill-rule:evenodd;stroke:none"
         id="path388"
         inkscape:connector-curvature="0" /><path
         d="m 6745.22,1693.76 c 17.8,0 32.23,-14.43 32.23,-32.23 0,-17.8 -14.43,-32.22 -32.23,-32.22 -17.8,0 -32.22,14.42 -32.22,32.22 0,17.8 14.42,32.23 32.22,32.23"
         style="fill:#f4d596;fill-opacity:1;fill-rule:evenodd;stroke:none"
         id="path390"
         inkscape:connector-curvature="0" /><path
         d="m 6617.96,1954.8 c 17.79,0 32.22,-14.43 32.22,-32.23 0,-17.8 -14.43,-32.22 -32.22,-32.22 -17.8,0 -32.23,14.42 -32.23,32.22 0,17.8 14.43,32.23 32.23,32.23"
         style="fill:#f4d596;fill-opacity:1;fill-rule:evenodd;stroke:none"
         id="path392"
         inkscape:connector-curvature="0" /><path
         d="m 6157.35,1902.07 c 38.45,0 69.63,-31.18 69.63,-69.63 0,-38.45 -31.18,-69.62 -69.63,-69.62 -38.45,0 -69.62,31.17 -69.62,69.62 0,38.45 31.17,69.63 69.62,69.63"
         style="fill:#d8aa50;fill-opacity:1;fill-rule:evenodd;stroke:none"
         id="path394"
         inkscape:connector-curvature="0" /><path
         d="m 5953.6,2098.88 c 24.72,0 44.76,-20.04 44.76,-44.76 0,-24.72 -20.04,-44.76 -44.76,-44.76 -24.72,0 -44.76,20.04 -44.76,44.76 0,24.72 20.04,44.76 44.76,44.76"
         style="fill:#d8aa50;fill-opacity:1;fill-rule:evenodd;stroke:none"
         id="path396"
         inkscape:connector-curvature="0" /><path
         d="m 6276.23,1738.1 c 29.66,0 53.72,-24.05 53.72,-53.71 0,-29.66 -24.06,-53.71 -53.72,-53.71 -29.66,0 -53.71,24.05 -53.71,53.71 0,29.66 24.05,53.71 53.71,53.71"
         style="fill:#d8aa50;fill-opacity:1;fill-rule:evenodd;stroke:none"
         id="path398"
         inkscape:connector-curvature="0" /><path
         d="m 5741.63,1737.5 c 21.76,0 39.39,-17.63 39.39,-39.38 0,-21.76 -17.63,-39.39 -39.39,-39.39 -21.75,0 -39.38,17.63 -39.38,39.39 0,21.75 17.63,39.38 39.38,39.38"
         style="fill:#d8aa50;fill-opacity:1;fill-rule:evenodd;stroke:none"
         id="path400"
         inkscape:connector-curvature="0" /><path
         d="m 5919.23,1857.2 c 26.95,0 48.79,-21.84 48.79,-48.78 0,-26.94 -21.84,-48.79 -48.79,-48.79 -26.94,0 -48.78,21.85 -48.78,48.79 0,26.94 21.84,48.78 48.78,48.78"
         style="fill:#d8aa50;fill-opacity:1;fill-rule:evenodd;stroke:none"
         id="path402"
         inkscape:connector-curvature="0" /><path
         d="m 6318.23,2042.02 c 21.25,0 38.47,-17.22 38.47,-38.47 0,-21.25 -17.22,-38.47 -38.47,-38.47 -21.25,0 -38.47,17.22 -38.47,38.47 0,21.25 17.22,38.47 38.47,38.47"
         style="fill:#d8aa50;fill-opacity:1;fill-rule:evenodd;stroke:none"
         id="path404"
         inkscape:connector-curvature="0" /><path
         d="m 6100.03,1721.43 c 17.8,0 32.23,-14.43 32.23,-32.23 0,-17.8 -14.43,-32.23 -32.23,-32.23 -17.8,0 -32.23,14.43 -32.23,32.23 0,17.8 14.43,32.23 32.23,32.23"
         style="fill:#d8aa50;fill-opacity:1;fill-rule:evenodd;stroke:none"
         id="path406"
         inkscape:connector-curvature="0" /><path
         d="m 5440.2,1835.23 c 16.81,0 30.43,-13.62 30.43,-30.43 0,-16.81 -13.62,-30.44 -30.43,-30.44 -16.81,0 -30.44,13.63 -30.44,30.44 0,16.81 13.63,30.43 30.44,30.43"
         style="fill:#d8aa50;fill-opacity:1;fill-rule:evenodd;stroke:none"
         id="path408"
         inkscape:connector-curvature="0" /></g></g></svg>