<?xml version="1.0" encoding="UTF-8" standalone="no"?>
<!-- Created with Inkscape (http://www.inkscape.org/) -->

<svg
   xmlns:dc="http://purl.org/dc/elements/1.1/"
   xmlns:cc="http://creativecommons.org/ns#"
   xmlns:rdf="http://www.w3.org/1999/02/22-rdf-syntax-ns#"
   xmlns:svg="http://www.w3.org/2000/svg"
   xmlns="http://www.w3.org/2000/svg"
   xmlns:sodipodi="http://sodipodi.sourceforge.net/DTD/sodipodi-0.dtd"
   xmlns:inkscape="http://www.inkscape.org/namespaces/inkscape"
   version="1.1"
   id="svg2"
   xml:space="preserve"
   width="1200"
   height="1200"
   viewBox="0 0 1200 1200"
   sodipodi:docname="logo-grue.svg"
   inkscape:version="0.92.3 (2405546, 2018-03-11)"
   inkscape:export-filename="/home/raph/wiki-list/src/shared/img/back.png"
   inkscape:export-xdpi="90"
   inkscape:export-ydpi="90"><metadata
     id="metadata8"><rdf:RDF><cc:Work
         rdf:about=""><dc:format>image/svg+xml</dc:format><dc:type
           rdf:resource="http://purl.org/dc/dcmitype/StillImage" /><dc:title></dc:title></cc:Work></rdf:RDF></metadata><defs
     id="defs6" /><sodipodi:namedview
     pagecolor="#ffffff"
     bordercolor="#666666"
     borderopacity="1"
     objecttolerance="10"
     gridtolerance="10"
     guidetolerance="10"
     inkscape:pageopacity="0"
     inkscape:pageshadow="2"
     inkscape:window-width="1680"
     inkscape:window-height="998"
     id="namedview4"
     showgrid="false"
     inkscape:zoom="0.31189429"
     inkscape:cx="683.24992"
     inkscape:cy="527.37224"
     inkscape:window-x="0"
     inkscape:window-y="24"
     inkscape:window-maximized="1"
     inkscape:current-layer="g12"
     fit-margin-top="2"
     fit-margin-left="2"
     fit-margin-right="2"
     fit-margin-bottom="2" /><g
     id="g10"
     inkscape:groupmode="layer"
     inkscape:label="ink_ext_XXXXXX"
     transform="matrix(1.3333333,0,0,-1.3333333,-206.68133,1407.732)"><g
       id="g12"
       transform="scale(0.1)"><path
         d="m 3311.6003,1789.4195 h 2557.27 v 3263.36 l -1278.64,817.03 -1278.63,-817.03 v -3263.36"
         style="fill:#c1ddd4;fill-opacity:1;fill-rule:evenodd;stroke:none"
         id="path18"
         inkscape:connector-curvature="0" /><path
         d="m 4447.5103,2882.2195 h 285.45 v -540.34 h -285.45 v 540.34"
         style="fill:#9bbcad;fill-opacity:1;fill-rule:evenodd;stroke:none"
         id="path20"
         inkscape:connector-curvature="0" /><path
         d="m 4447.5103,3875.2695 h 285.45 v -540.34 h -285.45 v 540.34"
         style="fill:#9bbcad;fill-opacity:1;fill-rule:evenodd;stroke:none"
         id="path22"
         inkscape:connector-curvature="0" /><path
         d="m 4447.5103,4868.3195 h 285.45 v -540.34 h -285.45 v 540.34"
         style="fill:#9bbcad;fill-opacity:1;fill-rule:evenodd;stroke:none"
         id="path24"
         inkscape:connector-curvature="0" /><path
         d="m 8832.3603,8150.4595 -0.01,304.54 c 13.39,14.36 21.59,33.62 21.59,54.8 h 21.6 l 0.03,-412.4 h -21.65 c -0.43,20.5 -8.54,39.1 -21.56,53.06"
         style="fill:#413f3f;fill-opacity:1;fill-rule:nonzero;stroke:none"
         id="path28"
         inkscape:connector-curvature="0" /><path
         d="m 8300.2703,8097.3995 -0.02,412.4 h 21.6 c 0,-21.18 8.2,-40.45 21.6,-54.8 l 0.02,-304.5 c -13.05,-13.96 -21.17,-32.58 -21.6,-53.1 h -21.6"
         style="fill:#413f3f;fill-opacity:1;fill-rule:nonzero;stroke:none"
         id="path30"
         inkscape:connector-curvature="0" /><path
         d="m 6901.1703,2880.4795 h 285.45 v -540.34 h -285.45 v 540.34"
         style="fill:#623721;fill-opacity:1;fill-rule:evenodd;stroke:none"
         id="path32"
         inkscape:connector-curvature="0" /><path
         d="m 7854.9903,2880.4795 h 285.46 v -540.34 h -285.46 v 540.34"
         style="fill:#452514;fill-opacity:1;fill-rule:evenodd;stroke:none"
         id="path34"
         inkscape:connector-curvature="0" /><path
         d="m 6566.9803,2073.6195 h 2861.49 v -284.2 h -2861.49 v 284.2"
         style="fill:#452514;fill-opacity:1;fill-rule:evenodd;stroke:none"
         id="path36"
         inkscape:connector-curvature="0" /><path
         d="m 6566.9803,3066.6695 h 953.83 v -993.05 h -953.83 z m 334.19,-186.19 h 285.45 v -540.34 h -285.45 v 540.34"
         style="fill:#d05e2d;fill-opacity:1;fill-rule:evenodd;stroke:none"
         id="path38"
         inkscape:connector-curvature="0" /><path
         d="m 7520.8103,3066.6695 h 953.83 v -993.05 h -953.83 z m 334.18,-186.19 h 285.46 v -540.34 h -285.46 v 540.34"
         style="fill:#b14518;fill-opacity:1;fill-rule:evenodd;stroke:none"
         id="path40"
         inkscape:connector-curvature="0" /><path
         d="m 8474.6403,3066.6695 h 953.83 v -993.05 h -953.83 z m 334.19,-186.19 h 285.45 v -540.34 h -285.45 v 540.34"
         style="fill:#853716;fill-opacity:1;fill-rule:evenodd;stroke:none"
         id="path42"
         inkscape:connector-curvature="0" /><path
         d="m 6566.9803,4059.7195 h 953.83 v -993.05 h -953.83 z m 334.19,-186.19 h 285.45 v -540.34 h -285.45 v 540.34"
         style="fill:#e37949;fill-opacity:1;fill-rule:evenodd;stroke:none"
         id="path44"
         inkscape:connector-curvature="0" /><path
         d="m 7520.8103,4059.7195 h 953.83 v -993.05 h -953.83 z m 334.18,-186.19 h 285.46 v -540.34 h -285.46 v 540.34"
         style="fill:#d05e2d;fill-opacity:1;fill-rule:evenodd;stroke:none"
         id="path46"
         inkscape:connector-curvature="0" /><path
         d="m 8474.6403,4059.7195 h 953.83 v -993.05 h -953.83 z m 334.19,-186.19 h 285.45 v -540.34 h -285.45 v 540.34"
         style="fill:#b14518;fill-opacity:1;fill-rule:evenodd;stroke:none"
         id="path48"
         inkscape:connector-curvature="0" /><path
         d="m 6566.9803,5052.7795 h 953.83 v -993.06 h -953.83 z m 334.19,-186.2 h 285.45 v -540.34 h -285.45 v 540.34"
         style="fill:#eee4d3;fill-opacity:1;fill-rule:evenodd;stroke:none"
         id="path50"
         inkscape:connector-curvature="0" /><path
         d="m 7520.8103,5052.7795 h 953.83 v -993.06 h -953.83 z m 334.18,-186.2 h 285.46 v -540.34 h -285.46 v 540.34"
         style="fill:#e37949;fill-opacity:1;fill-rule:evenodd;stroke:none"
         id="path52"
         inkscape:connector-curvature="0" /><path
         d="m 8474.6403,5052.7795 h 953.83 v -993.06 h -953.83 z m 334.19,-186.2 h 285.45 v -540.34 h -285.45 v 540.34"
         style="fill:#d05e2d;fill-opacity:1;fill-rule:evenodd;stroke:none"
         id="path54"
         inkscape:connector-curvature="0" /><path
         d="m 8474.6403,6045.8295 h 953.83 v -993.05 h -1907.66 v 993.05 z m -619.65,-186.2 h 285.46 v -540.33 h -285.46 z m 953.84,0 h 285.45 v -540.33 h -285.45 v 540.33"
         style="fill:#a49e9a;fill-opacity:1;fill-rule:evenodd;stroke:none"
         id="path56"
         inkscape:connector-curvature="0" /><path
         d="m 6566.9803,6045.8295 h 953.83 v -993.05 h -83.13 v 849.31 h -787.58 v -849.31 h -83.12 v 993.05"
         style="fill:#ffffff;fill-opacity:1;fill-rule:evenodd;stroke:none"
         id="path58"
         inkscape:connector-curvature="0" /><path
         d="m 8474.6403,7038.8795 h 953.83 v -993.05 h -83.12 v 849.31 h -787.58 v -849.31 h -83.13 -83.13 v 849.31 h -787.58 v -849.31 h -83.12 v 993.05 h 953.83"
         style="fill:#ffffff;fill-opacity:1;fill-rule:evenodd;stroke:none"
         id="path60"
         inkscape:connector-curvature="0" /><path
         d="m 8808.8303,2880.4795 h 285.45 v -540.34 h -285.45 v 540.34"
         style="fill:#301c12;fill-opacity:1;fill-rule:evenodd;stroke:none"
         id="path62"
         inkscape:connector-curvature="0" /><path
         d="m 6901.1703,3873.5295 h 285.45 v -540.34 h -285.45 v 540.34"
         style="fill:#714028;fill-opacity:1;fill-rule:evenodd;stroke:none"
         id="path64"
         inkscape:connector-curvature="0" /><path
         d="m 7854.9903,3873.5295 h 285.46 v -540.34 h -285.46 v 540.34"
         style="fill:#623721;fill-opacity:1;fill-rule:evenodd;stroke:none"
         id="path66"
         inkscape:connector-curvature="0" /><path
         d="m 8808.8303,3873.5295 h 285.45 v -540.34 h -285.45 v 540.34"
         style="fill:#452514;fill-opacity:1;fill-rule:evenodd;stroke:none"
         id="path68"
         inkscape:connector-curvature="0" /><path
         d="m 6901.1703,4866.5795 h 285.45 v -540.34 h -285.45 v 540.34"
         style="fill:#5c5755;fill-opacity:1;fill-rule:evenodd;stroke:none"
         id="path70"
         inkscape:connector-curvature="0" /><path
         d="m 7854.9903,4866.5795 h 285.46 v -540.34 h -285.46 v 540.34"
         style="fill:#714028;fill-opacity:1;fill-rule:evenodd;stroke:none"
         id="path72"
         inkscape:connector-curvature="0" /><path
         d="m 8808.8303,4866.5795 h 285.45 v -540.34 h -285.45 v 540.34"
         style="fill:#623721;fill-opacity:1;fill-rule:evenodd;stroke:none"
         id="path74"
         inkscape:connector-curvature="0" /><path
         d="m 8232.2003,9214.5895 c 76.05,0 137.7,-61.65 137.7,-137.71 0,-76.05 -61.65,-137.69 -137.7,-137.69 -76.05,0 -137.7,61.64 -137.7,137.69 0,76.06 61.65,137.71 137.7,137.71"
         style="fill:#e37949;fill-opacity:1;fill-rule:evenodd;stroke:none"
         id="path82"
         inkscape:connector-curvature="0" /><path
         d="m 2982.7203,8811.8495 c 76.05,0 137.7,-61.65 137.7,-137.7 0,-76.05 -61.65,-137.71 -137.7,-137.71 -76.05,0 -137.7,61.66 -137.7,137.71 0,76.05 61.65,137.7 137.7,137.7"
         style="fill:#e37949;fill-opacity:1;fill-rule:evenodd;stroke:none"
         id="path84"
         inkscape:connector-curvature="0" /><path
         d="m 4890.9003,10393.119 c 76.05,0 137.7,-61.6 137.7,-137.7 0,-76.05 -61.65,-137.7 -137.7,-137.7 -76.05,0 -137.7,61.65 -137.7,137.7 0,76.1 61.65,137.7 137.7,137.7"
         style="fill:#e37949;fill-opacity:1;fill-rule:evenodd;stroke:none"
         id="path86"
         inkscape:connector-curvature="0" /><path
         d="m 4847.5303,2386.1795 c 0,11.97 4.85,22.81 12.69,30.65 l 434.24,522.74 h -403.56 c -23.95,0 -43.37,19.42 -43.37,43.38 0,11.97 4.85,22.8 12.69,30.65 l 434.24,522.74 h -403.56 c -23.95,0 -43.37,19.42 -43.37,43.37 0,11.97 4.85,22.8 12.69,30.65 l 434.24,522.74 h -403.56 c -23.95,0 -43.37,19.42 -43.37,43.37 0,11.97 4.85,22.81 12.69,30.65 l 434.24,522.74 h -403.56 c -23.95,0 -43.37,19.42 -43.37,43.37 0,11.97 4.85,22.8 12.69,30.65 l 434.24,522.74 h -403.56 c -23.95,0 -43.37,19.42 -43.37,43.37 0,11.97 4.85,22.81 12.69,30.66 l 434.24,522.73 h -403.56 c -23.95,0 -43.37,19.42 -43.37,43.38 0,3.93 0.53,7.73 1.51,11.35 -3.27,12.93 -0.52,27.19 8.66,38.22 l 436.76,525.78 h -403.56 c -23.95,0 -43.37,19.41 -43.37,43.36 0,11.97 4.85,22.81 12.69,30.66 l 434.24,522.74 h -403.56 c -23.95,0 -43.37,19.42 -43.37,43.37 0,11.97 4.85,22.8 12.69,30.65 l 493.2,593.73 c 15.26,18.34 42.49,20.84 60.83,5.59 18.34,-15.25 20.84,-42.49 5.59,-60.83 l -436.76,-525.77 h 403.55 c 23.96,0 43.37,-19.42 43.37,-43.37 0,-11.97 -4.85,-22.8 -12.69,-30.65 l -434.23,-522.74 h 403.55 c 23.96,0 43.37,-19.42 43.37,-43.38 0,-11.96 -4.85,-22.8 -12.69,-30.64 l -452.48,-544.7 h 421.8 c 23.96,0 43.37,-19.42 43.37,-43.37 0,-11.97 -4.85,-22.81 -12.69,-30.66 l -434.23,-522.73 h 403.55 c 23.96,0 43.37,-19.42 43.37,-43.38 0,-11.96 -4.85,-22.8 -12.69,-30.65 l -434.23,-522.74 h 403.55 c 23.96,0 43.37,-19.41 43.37,-43.37 0,-11.97 -4.85,-22.8 -12.69,-30.65 l -434.23,-522.74 h 403.55 c 23.96,0 43.37,-19.42 43.37,-43.37 0,-11.97 -4.85,-22.8 -12.69,-30.65 l -434.23,-522.74 h 403.55 c 23.96,0 43.37,-19.42 43.37,-43.37 0,-11.97 -4.85,-22.81 -12.69,-30.65 l -434.23,-522.74 h 403.55 c 23.96,0 43.37,-19.42 43.37,-43.37 0,-11.97 -4.85,-22.81 -12.69,-30.65 l -434.23,-522.74 h 403.55 c 23.96,0 43.37,-19.43 43.37,-43.38 h -582.47"
         style="fill:#49676a;fill-opacity:1;fill-rule:nonzero;stroke:none"
         id="path88"
         inkscape:connector-curvature="0" /><path
         d="m 8986.9603,8674.1495 c 0,-23.96 -19.42,-43.38 -43.37,-43.38 -23.95,0 -43.37,19.42 -43.37,43.38 v 328.49 l -643.81,-364.48 c -6.91,-4.67 -15.24,-7.39 -24.21,-7.39 -23.95,0 -43.37,19.42 -43.37,43.38 v 328.49 l -643.81,-364.48 c -6.91,-4.67 -15.25,-7.39 -24.21,-7.39 -23.96,0 -43.38,19.42 -43.38,43.38 v 328.49 l -643.8,-364.48 c -6.92,-4.67 -15.25,-7.39 -24.21,-7.39 -23.96,0 -43.38,19.42 -43.38,43.38 v 328.49 l -643.8,-364.48 c -6.92,-4.67 -15.25,-7.39 -24.22,-7.39 -23.95,0 -43.37,19.42 -43.37,43.38 v 402.73 c 0,23.96 19.42,43.38 43.37,43.38 23.96,0 43.38,-19.42 43.38,-43.38 v -328.49 l 643.8,364.48 c 6.92,4.66 15.25,7.39 24.22,7.39 23.95,0 43.37,-19.42 43.37,-43.38 v -328.49 l 643.81,364.48 c 6.91,4.66 15.24,7.39 24.21,7.39 23.95,0 43.37,-19.42 43.37,-43.38 v -328.49 l 643.81,364.48 c 6.91,4.66 15.24,7.39 24.21,7.39 23.95,0 43.37,-19.42 43.37,-43.38 v -328.49 l 643.81,364.48 c 6.91,4.66 15.24,7.39 24.21,7.39 23.95,0 43.37,-19.42 43.37,-43.38 v -402.73"
         style="fill:#49676a;fill-opacity:1;fill-rule:nonzero;stroke:none"
         id="path90"
         inkscape:connector-curvature="0" /><path
         d="m 5419.8403,8701.7595 c 15.25,-18.34 12.75,-45.57 -5.59,-60.82 -18.34,-15.25 -45.57,-12.75 -60.83,5.59 l -493.2,593.73 c -7.84,7.84 -12.69,18.68 -12.69,30.64 0,23.96 19.42,43.38 43.37,43.38 h 308.64 c 23.96,0 43.38,-19.42 43.38,-43.38 0,-23.94 -19.42,-43.36 -43.38,-43.36 h -216.46 l 436.76,-525.78"
         style="fill:#49676a;fill-opacity:1;fill-rule:nonzero;stroke:none"
         id="path92"
         inkscape:connector-curvature="0" /><path
         d="m 3492.3303,9112.8695 643.81,-364.48 v 328.49 c 0,23.96 19.42,43.38 43.37,43.38 23.95,0 43.37,-19.42 43.37,-43.38 v -402.73 c 0,-23.96 -19.42,-43.38 -43.37,-43.38 -8.97,0 -17.3,2.72 -24.21,7.39 l -643.81,364.48 v -328.49 c 0,-23.96 -19.42,-43.38 -43.38,-43.38 -23.94,0 -43.36,19.42 -43.36,43.38 v 402.73 c 0,23.96 19.42,43.38 43.36,43.38 8.97,0 17.31,-2.73 24.22,-7.39"
         style="fill:#49676a;fill-opacity:1;fill-rule:nonzero;stroke:none"
         id="path94"
         inkscape:connector-curvature="0" /><path
         d="m 5341.0903,2386.1795 v 6242.42 h -404.65 v -6242.42 h -91.08 v 6287.97 1581.2695 c 0,25.2 20.39,45.5 45.54,45.5 21.38,0 39.32,-14.7 44.21,-34.6 l 484.89,-1546.6395 h 12.17 v -45.53 -6287.97 z m -404.65,6333.5 h 388.27 l -388.27,1238.51 z"
         style="fill:#6da0a0;fill-opacity:1;fill-rule:nonzero;stroke:none"
         id="path96"
         inkscape:connector-curvature="0" /><path
         d="m 6072.6003,9114.6695 c 7.26,4.9 16.01,7.75 25.42,7.75 h 2845.57 c 9.42,0 18.17,-2.85 25.42,-7.75 l 705.26,-399.27 c 15.51,-7.25 26.25,-23 26.25,-41.25 0,-25.16 -20.39,-45.55 -45.54,-45.55 h -4268.35 -172.61 l 150.2,85.03 z m 2859.26,-83.32 h -2822.1 l -550.52,-311.67 h 3923.13 l -550.51,311.67"
         style="fill:#6da0a0;fill-opacity:1;fill-rule:nonzero;stroke:none"
         id="path98"
         inkscape:connector-curvature="0" /><path
         d="m 2955.4203,8710.5995 481.96,399.89 c 8.1,7.41 18.89,11.93 30.73,11.93 h 711.4 c 9.41,0 18.16,-2.85 25.42,-7.75 l 705.25,-399.27 c 15.52,-7.25 26.26,-23 26.26,-41.25 0,-25.16 -20.39,-45.55 -45.54,-45.55 h -1908.18 c -25.15,0 -45.54,20.39 -45.54,45.55 0,14.91 7.17,28.14 18.24,36.45 z m 1762.87,9.08 -550.51,311.67 h -683.32 l -375.62,-311.67 h 1609.45"
         style="fill:#6da0a0;fill-opacity:1;fill-rule:nonzero;stroke:none"
         id="path100"
         inkscape:connector-curvature="0" /><path
         d="m 5561.3203,7778.9995 h -597.24 c -40.25,0 -73.18,32.93 -73.18,73.17 v 748.8 c 0,40.25 32.93,73.18 73.18,73.18 h 597.24 c 40.25,0 73.18,-32.93 73.18,-73.18 v -748.8 c 0,-40.24 -32.93,-73.17 -73.18,-73.17"
         style="fill:#517174;fill-opacity:1;fill-rule:evenodd;stroke:none"
         id="path102"
         inkscape:connector-curvature="0" /><path
         d="m 2904.3703,8787.3795 1889.91,1566.1395 c -23.58,-23.2 -38.83,-54.9 -40.85,-90.1 l -1753.01,-1452.6995 c -5.8,0.74 -11.71,1.13 -17.7,1.13 -29.11,0 -56.11,-9.05 -78.35,-24.47"
         style="fill:#413f3f;fill-opacity:1;fill-rule:nonzero;stroke:none"
         id="path104"
         inkscape:connector-curvature="0" /><path
         d="m 4949.1503,10380.219 3316.09,-1169.6295 c -10.58,2.61 -21.65,4 -33.04,4 -23.07,0 -44.81,-5.68 -63.91,-15.71 l -3151.07,1111.4395 c -13.4,30.8 -37.72,55.7 -68.07,69.9 v 0"
         style="fill:#413f3f;fill-opacity:1;fill-rule:nonzero;stroke:none"
         id="path106"
         inkscape:connector-curvature="0" /><path
         d="m 3424.7503,8226.3395 h 399.06 v 402.74 h -399.06 v -402.74"
         style="fill:#9d9d9d;fill-opacity:1;fill-rule:evenodd;stroke:none"
         id="path108"
         inkscape:connector-curvature="0" /><path
         d="m 4643.0403,2386.1795 h 991.46 v -596.76 h -991.46 v 596.76"
         style="fill:#9d9d9d;fill-opacity:1;fill-rule:evenodd;stroke:none"
         id="path110"
         inkscape:connector-curvature="0" /><path
         d="m 3823.8103,8226.3395 h 399.07 v 402.74 h -399.07 v -402.74"
         style="fill:#6a6969;fill-opacity:1;fill-rule:evenodd;stroke:none"
         id="path112"
         inkscape:connector-curvature="0" /><path
         d="m 5561.3203,7778.9995 h -220.23 v 895.15 h 220.23 c 40.25,0 73.18,-32.93 73.18,-73.18 v -748.8 c 0,-40.24 -32.93,-73.17 -73.18,-73.17"
         style="fill:#354343;fill-opacity:1;fill-rule:evenodd;stroke:none"
         id="path114"
         inkscape:connector-curvature="0" /><path
         d="m 5634.5003,8019.3095 h -424.33 c -22.86,0 -41.57,18.71 -41.57,41.57 v 425.35 c 0,22.87 18.71,41.57 41.57,41.57 h 424.33 v -508.49"
         style="fill:#88babe;fill-opacity:1;fill-rule:evenodd;stroke:none"
         id="path116"
         inkscape:connector-curvature="0" /><path
         d="m 5634.5003,8019.3095 h -293.41 v 508.49 h 293.41 v -508.49"
         style="fill:#517174;fill-opacity:1;fill-rule:evenodd;stroke:none"
         id="path118"
         inkscape:connector-curvature="0" /><path
         d="m 8274.9703,7963.4895 312.93,-128.56 v 262.47 h -312.93 v -133.91"
         style="fill:#e37949;fill-opacity:1;fill-rule:evenodd;stroke:none"
         id="path120"
         inkscape:connector-curvature="0" /><path
         d="m 8671.4503,7869.2595 c 28.46,-23.87 46.56,-59.69 46.56,-99.74 0,-71.86 -58.25,-130.11 -130.11,-130.11 -71.86,0 -130.11,58.25 -130.11,130.11 h 64.7 c 0,-36.12 29.28,-65.41 65.41,-65.41 36.12,0 65.41,29.29 65.41,65.41 0,36.13 -29.29,65.41 -65.41,65.41 l 83.55,34.33"
         style="fill:#853716;fill-opacity:1;fill-rule:evenodd;stroke:none"
         id="path122"
         inkscape:connector-curvature="0" /><path
         d="m 8188.8303,8509.7995 h 399.07 v 118.8 h -399.07 v -118.8"
         style="fill:#aaaaaa;fill-opacity:1;fill-rule:evenodd;stroke:none"
         id="path124"
         inkscape:connector-curvature="0" /><path
         d="m 8900.8303,7963.4895 -312.93,-128.56 v 262.47 h 312.93 v -133.91"
         style="fill:#b14518;fill-opacity:1;fill-rule:evenodd;stroke:none"
         id="path126"
         inkscape:connector-curvature="0" /><path
         d="m 8587.9003,8509.7995 h 399.06 v 118.8 h -399.06 v -118.8"
         style="fill:#6a6969;fill-opacity:1;fill-rule:evenodd;stroke:none"
         id="path128"
         inkscape:connector-curvature="0" /><path
         d="m 8402.1703,8176.0095 c 43.79,0 79.39,-35.04 80.31,-78.61 h -160.61 c 0.92,43.57 36.51,78.61 80.3,78.61"
         style="fill:#e37949;fill-opacity:1;fill-rule:evenodd;stroke:none"
         id="path130"
         inkscape:connector-curvature="0" /><path
         d="m 8773.6203,8176.0095 c 43.78,0 79.39,-35.04 80.3,-78.61 h -160.61 c 0.92,43.57 36.52,78.61 80.31,78.61"
         style="fill:#e37949;fill-opacity:1;fill-rule:evenodd;stroke:none"
         id="path132"
         inkscape:connector-curvature="0" /><path
         d="m 8482.5003,8509.7995 c 0,-44.37 -35.96,-80.33 -80.33,-80.33 -44.36,0 -80.32,35.96 -80.32,80.33 h 160.65"
         style="fill:#e37949;fill-opacity:1;fill-rule:evenodd;stroke:none"
         id="path134"
         inkscape:connector-curvature="0" /><path
         d="m 8853.9403,8509.7995 c 0,-44.37 -35.96,-80.33 -80.32,-80.33 -44.37,0 -80.33,35.96 -80.33,80.33 h 160.65"
         style="fill:#e37949;fill-opacity:1;fill-rule:evenodd;stroke:none"
         id="path136"
         inkscape:connector-curvature="0" /><path
         d="m 8402.1703,8548.8095 c 21.55,0 39.02,-17.46 39.02,-39.01 0,-21.55 -17.47,-39.02 -39.02,-39.02 -21.54,0 -39.01,17.47 -39.01,39.02 0,21.55 17.47,39.01 39.01,39.01"
         style="fill:#853716;fill-opacity:1;fill-rule:evenodd;stroke:none"
         id="path138"
         inkscape:connector-curvature="0" /><path
         d="m 8402.1703,8136.4195 c 21.55,0 39.02,-17.47 39.02,-39.02 0,-21.55 -17.47,-39.02 -39.02,-39.02 -21.54,0 -39.01,17.47 -39.01,39.02 0,21.55 17.47,39.02 39.01,39.02"
         style="fill:#853716;fill-opacity:1;fill-rule:evenodd;stroke:none"
         id="path140"
         inkscape:connector-curvature="0" /><path
         d="m 8773.6203,8548.8095 c 21.55,0 39.01,-17.46 39.01,-39.01 0,-21.55 -17.46,-39.02 -39.01,-39.02 -21.55,0 -39.02,17.47 -39.02,39.02 0,21.55 17.47,39.01 39.02,39.01"
         style="fill:#853716;fill-opacity:1;fill-rule:evenodd;stroke:none"
         id="path142"
         inkscape:connector-curvature="0" /><path
         d="m 8773.6203,8136.4195 c 21.55,0 39.01,-17.47 39.01,-39.02 0,-21.55 -17.46,-39.02 -39.01,-39.02 -21.55,0 -39.02,17.47 -39.02,39.02 0,21.55 17.47,39.02 39.02,39.02"
         style="fill:#853716;fill-opacity:1;fill-rule:evenodd;stroke:none"
         id="path144"
         inkscape:connector-curvature="0" /><path
         d="m 9263.8903,7038.8795 v -143.74 h -334.19 v 84.25 h -285.46 v -84.25 h -86.47 v -722.6 h -166.26 v 866.34 h 872.38"
         style="fill:#6c6966;fill-opacity:1;fill-rule:evenodd;stroke:none"
         id="path146"
         inkscape:connector-curvature="0" /><path
         d="m 8110.9803,7368.8095 h 953.83 v -993.05 h -953.83 z m 334.19,-186.19 h 285.46 v -540.34 h -285.46 v 540.34"
         style="fill:#a49e9a;fill-opacity:1;fill-rule:evenodd;stroke:none"
         id="path148"
         inkscape:connector-curvature="0" /><path
         d="m 8124.1103,7351.6195 c -9.5,-7.25 -23.07,-5.43 -30.32,4.06 -7.26,9.5 -5.44,23.08 4.06,30.33 l 476.91,365.64 c 9.5,7.25 23.08,5.43 30.33,-4.07 7.26,-9.5 5.43,-23.07 -4.07,-30.32 l -476.91,-365.64"
         style="fill:#413f3f;fill-opacity:1;fill-rule:nonzero;stroke:none"
         id="path150"
         inkscape:connector-curvature="0" /><path
         d="m 8574.7603,7717.2595 c -9.49,7.25 -11.31,20.82 -4.06,30.32 7.25,9.5 20.83,11.32 30.32,4.07 l 476.92,-365.64 c 9.5,-7.25 11.32,-20.83 4.07,-30.33 -7.25,-9.49 -20.83,-11.31 -30.33,-4.06 l -476.92,365.64"
         style="fill:#413f3f;fill-opacity:1;fill-rule:nonzero;stroke:none"
         id="path152"
         inkscape:connector-curvature="0" /><path
         d="m 2969.4503,2704.0095 v 0 -914.59 h -43.29 v 871.3 c 0,23.91 19.38,43.29 43.29,43.29"
         style="fill:#a0a0a0;fill-opacity:1;fill-rule:evenodd;stroke:none"
         id="path154"
         inkscape:connector-curvature="0" /><path
         d="m 2969.4503,2704.0095 c 23.91,0 43.29,-19.38 43.29,-43.29 v -871.3 h -43.29 v 914.59"
         style="fill:#535252;fill-opacity:1;fill-rule:evenodd;stroke:none"
         id="path156"
         inkscape:connector-curvature="0" /><path
         d="m 3842.5603,2704.0095 v 0 -914.59 h -43.29 v 871.3 c 0,23.91 19.38,43.29 43.29,43.29"
         style="fill:#a0a0a0;fill-opacity:1;fill-rule:evenodd;stroke:none"
         id="path158"
         inkscape:connector-curvature="0" /><path
         d="m 3842.5603,2704.0095 c 23.91,0 43.29,-19.38 43.29,-43.29 v -871.3 h -43.29 v 914.59"
         style="fill:#535252;fill-opacity:1;fill-rule:evenodd;stroke:none"
         id="path160"
         inkscape:connector-curvature="0" /><path
         d="m 3972.4303,2559.8295 v -254.52 c -0.03,-31.39 -25.5,-57.12 -56.79,-57.59 h -132.02 l 177.1,346.78 c 7.33,-9.67 11.7,-21.68 11.71,-34.67"
         style="fill:#b30000;fill-opacity:1;fill-rule:evenodd;stroke:none"
         id="path162"
         inkscape:connector-curvature="0" /><path
         d="m 3960.7203,2594.4995 -177.1,-346.78 h -188.81 l 188.81,369.71 h 131.15 c 18.7,0 35.4,-9.03 45.95,-22.93"
         style="fill:#ffffff;fill-opacity:1;fill-rule:evenodd;stroke:none"
         id="path164"
         inkscape:connector-curvature="0" /><path
         d="m 3783.6203,2617.4295 -188.81,-369.71 h -188.8 l 188.8,369.71 h 188.81"
         style="fill:#b30000;fill-opacity:1;fill-rule:evenodd;stroke:none"
         id="path166"
         inkscape:connector-curvature="0" /><path
         d="m 3406.0103,2617.4295 h 188.8 l -188.8,-369.72 h -188.81 l 188.81,369.72"
         style="fill:#ffffff;fill-opacity:1;fill-rule:evenodd;stroke:none"
         id="path168"
         inkscape:connector-curvature="0" /><path
         d="m 3217.2003,2617.4295 h 188.81 l -188.81,-369.72 h -188.81 l 188.81,369.72"
         style="fill:#b30000;fill-opacity:1;fill-rule:evenodd;stroke:none"
         id="path170"
         inkscape:connector-curvature="0" /><path
         d="m 3028.3903,2617.4295 h 188.81 l -188.81,-369.72 h -131.48 c -18.57,0.11 -35.13,9.11 -45.62,22.94 l 177.1,346.78"
         style="fill:#ffffff;fill-opacity:1;fill-rule:evenodd;stroke:none"
         id="path172"
         inkscape:connector-curvature="0" /><path
         d="m 2839.5803,2305.3795 v 254.39 c 0,31.58 25.73,57.44 57.26,57.66 h 131.55 l -177.1,-346.78 c -7.34,9.67 -11.71,21.71 -11.71,34.73"
         style="fill:#b30000;fill-opacity:1;fill-rule:evenodd;stroke:none"
         id="path174"
         inkscape:connector-curvature="0" /><path
         d="m 3842.5603,1962.5795 v 0 h -873.11 v 0 c 0,23.91 19.38,43.29 43.28,43.29 h 786.54 c 23.91,0 43.29,-19.38 43.29,-43.29"
         style="fill:#a0a0a0;fill-opacity:1;fill-rule:evenodd;stroke:none"
         id="path176"
         inkscape:connector-curvature="0" /><path
         d="m 3842.5603,1962.5795 c 0,-23.91 -19.38,-43.29 -43.29,-43.29 h -786.54 c -23.9,0 -43.28,19.38 -43.28,43.29 h 873.11"
         style="fill:#535252;fill-opacity:1;fill-rule:evenodd;stroke:none"
         id="path178"
         inkscape:connector-curvature="0" /><path
         d="m 4845.3603,1789.4095 c 261.53,477.71 754.7,729.22 1123.93,729.22 v -729.22 h -1123.93"
         style="fill:#f4d596;fill-opacity:1;fill-rule:evenodd;stroke:none"
         id="path222"
         inkscape:connector-curvature="0" /><path
         d="m 7093.2203,1789.4095 c -261.52,477.71 -754.69,729.22 -1123.93,729.22 v -729.22 h 1123.93"
         style="fill:#d8aa50;fill-opacity:1;fill-rule:evenodd;stroke:none"
         id="path224"
         inkscape:connector-curvature="0" /><path
         d="m 5657.2903,2125.9495 c 20.21,0 36.59,-16.39 36.59,-36.6 0,-20.2 -16.38,-36.59 -36.59,-36.59 -20.21,0 -36.59,16.39 -36.59,36.59 0,20.21 16.38,36.6 36.59,36.6"
         style="fill:#d8aa50;fill-opacity:1;fill-rule:evenodd;stroke:none"
         id="path226"
         inkscape:connector-curvature="0" /><path
         d="m 5453.5403,2243.1695 c 12.98,0 23.5,-10.52 23.5,-23.5 0,-12.97 -10.52,-23.49 -23.5,-23.49 -12.98,0 -23.5,10.52 -23.5,23.49 0,12.98 10.52,23.5 23.5,23.5"
         style="fill:#d8aa50;fill-opacity:1;fill-rule:evenodd;stroke:none"
         id="path228"
         inkscape:connector-curvature="0" /><path
         d="m 5776.1703,1954.4995 c 27.5,0 49.79,-22.29 49.79,-49.79 0,-27.49 -22.29,-49.79 -49.79,-49.79 -27.49,0 -49.79,22.3 -49.79,49.79 0,27.5 22.3,49.79 49.79,49.79"
         style="fill:#d8aa50;fill-opacity:1;fill-rule:evenodd;stroke:none"
         id="path230"
         inkscape:connector-curvature="0" /><path
         d="m 5374.8103,1940.4895 c 19.44,0 35.2,-15.77 35.2,-35.21 0,-19.44 -15.76,-35.2 -35.2,-35.2 -19.44,0 -35.21,15.76 -35.21,35.2 0,19.44 15.77,35.21 35.21,35.21"
         style="fill:#d8aa50;fill-opacity:1;fill-rule:evenodd;stroke:none"
         id="path232"
         inkscape:connector-curvature="0" /><path
         d="m 6131.9703,2009.6495 c 19.45,0 35.21,-15.76 35.21,-35.21 0,-19.44 -15.76,-35.2 -35.21,-35.2 -19.44,0 -35.2,15.76 -35.2,35.2 0,19.45 15.76,35.21 35.2,35.21"
         style="fill:#f4d596;fill-opacity:1;fill-rule:evenodd;stroke:none"
         id="path234"
         inkscape:connector-curvature="0" /><path
         d="m 6283.5503,1928.7295 c 13.3,0 24.07,-10.77 24.07,-24.06 0,-13.29 -10.77,-24.07 -24.07,-24.07 -13.29,0 -24.06,10.78 -24.06,24.07 0,13.29 10.77,24.06 24.06,24.06"
         style="fill:#f4d596;fill-opacity:1;fill-rule:evenodd;stroke:none"
         id="path236"
         inkscape:connector-curvature="0" /><path
         d="m 5434.5203,2007.5995 c 12.98,0 23.5,-10.52 23.5,-23.49 0,-12.98 -10.52,-23.49 -23.5,-23.49 -12.97,0 -23.49,10.51 -23.49,23.49 0,12.97 10.52,23.49 23.49,23.49"
         style="fill:#d8aa50;fill-opacity:1;fill-rule:evenodd;stroke:none"
         id="path238"
         inkscape:connector-curvature="0" /><path
         d="m 5599.9703,1933.0195 c 12.98,0 23.5,-10.52 23.5,-23.5 0,-12.97 -10.52,-23.49 -23.5,-23.49 -12.98,0 -23.5,10.52 -23.5,23.49 0,12.98 10.52,23.5 23.5,23.5"
         style="fill:#d8aa50;fill-opacity:1;fill-rule:evenodd;stroke:none"
         id="path240"
         inkscape:connector-curvature="0" /><path
         d="m 5162.1003,1984.7995 c 12.98,0 23.5,-10.52 23.5,-23.49 0,-12.98 -10.52,-23.5 -23.5,-23.5 -12.97,0 -23.49,10.52 -23.49,23.5 0,12.97 10.52,23.49 23.49,23.49"
         style="fill:#d8aa50;fill-opacity:1;fill-rule:evenodd;stroke:none"
         id="path242"
         inkscape:connector-curvature="0" /><path
         d="m 8763.1203,4379.5495 c 10.81,25.16 39.98,36.79 65.14,25.98 25.16,-10.82 36.79,-39.99 25.97,-65.15 -10.81,-25.16 -39.98,-36.79 -65.14,-25.97 -25.16,10.81 -36.79,39.98 -25.97,65.14"
         style="fill:#242424;fill-opacity:1;fill-rule:evenodd;stroke:none"
         id="path296"
         inkscape:connector-curvature="0" /><path
         d="m 6373.8103,1789.4095 c 311.21,568.47 898.08,867.76 1337.47,867.76 v -867.76 h -1337.47"
         style="fill:#f4d596;fill-opacity:1;fill-rule:evenodd;stroke:none"
         id="path382"
         inkscape:connector-curvature="0" /><path
         d="m 9048.7403,1789.4095 c -311.21,568.47 -898.07,867.76 -1337.46,867.76 v -867.76 h 1337.46"
         style="fill:#d8aa50;fill-opacity:1;fill-rule:evenodd;stroke:none"
         id="path384"
         inkscape:connector-curvature="0" /><path
         d="m 7835.8903,1999.3295 c 28.49,0 51.6,-23.1 51.6,-51.6 0,-28.5 -23.11,-51.6 -51.6,-51.6 -28.5,0 -51.6,23.1 -51.6,51.6 0,28.5 23.1,51.6 51.6,51.6"
         style="fill:#f4d596;fill-opacity:1;fill-rule:evenodd;stroke:none"
         id="path386"
         inkscape:connector-curvature="0" /><path
         d="m 8378.4403,1997.9895 c 17.8,0 32.23,-14.43 32.23,-32.22 0,-17.8 -14.43,-32.23 -32.23,-32.23 -17.79,0 -32.22,14.43 -32.22,32.23 0,17.79 14.43,32.22 32.22,32.22"
         style="fill:#f4d596;fill-opacity:1;fill-rule:evenodd;stroke:none"
         id="path388"
         inkscape:connector-curvature="0" /><path
         d="m 8019.6903,1910.1795 c 17.8,0 32.23,-14.43 32.23,-32.23 0,-17.8 -14.43,-32.22 -32.23,-32.22 -17.8,0 -32.22,14.42 -32.22,32.22 0,17.8 14.42,32.23 32.22,32.23"
         style="fill:#f4d596;fill-opacity:1;fill-rule:evenodd;stroke:none"
         id="path390"
         inkscape:connector-curvature="0" /><path
         d="m 7892.4303,2171.2195 c 17.79,0 32.22,-14.43 32.22,-32.23 0,-17.8 -14.43,-32.22 -32.22,-32.22 -17.8,0 -32.23,14.42 -32.23,32.22 0,17.8 14.43,32.23 32.23,32.23"
         style="fill:#f4d596;fill-opacity:1;fill-rule:evenodd;stroke:none"
         id="path392"
         inkscape:connector-curvature="0" /><path
         d="m 7431.8203,2118.4895 c 38.45,0 69.63,-31.18 69.63,-69.63 0,-38.45 -31.18,-69.62 -69.63,-69.62 -38.45,0 -69.62,31.17 -69.62,69.62 0,38.45 31.17,69.63 69.62,69.63"
         style="fill:#d8aa50;fill-opacity:1;fill-rule:evenodd;stroke:none"
         id="path394"
         inkscape:connector-curvature="0" /><path
         d="m 7228.0703,2315.2995 c 24.72,0 44.76,-20.04 44.76,-44.76 0,-24.72 -20.04,-44.76 -44.76,-44.76 -24.72,0 -44.76,20.04 -44.76,44.76 0,24.72 20.04,44.76 44.76,44.76"
         style="fill:#d8aa50;fill-opacity:1;fill-rule:evenodd;stroke:none"
         id="path396"
         inkscape:connector-curvature="0" /><path
         d="m 7550.7003,1954.5195 c 29.66,0 53.72,-24.05 53.72,-53.71 0,-29.66 -24.06,-53.71 -53.72,-53.71 -29.66,0 -53.71,24.05 -53.71,53.71 0,29.66 24.05,53.71 53.71,53.71"
         style="fill:#d8aa50;fill-opacity:1;fill-rule:evenodd;stroke:none"
         id="path398"
         inkscape:connector-curvature="0" /><path
         d="m 7016.1003,1953.9195 c 21.76,0 39.39,-17.63 39.39,-39.38 0,-21.76 -17.63,-39.39 -39.39,-39.39 -21.75,0 -39.38,17.63 -39.38,39.39 0,21.75 17.63,39.38 39.38,39.38"
         style="fill:#d8aa50;fill-opacity:1;fill-rule:evenodd;stroke:none"
         id="path400"
         inkscape:connector-curvature="0" /><path
         d="m 7193.7003,2073.6195 c 26.95,0 48.79,-21.84 48.79,-48.78 0,-26.94 -21.84,-48.79 -48.79,-48.79 -26.94,0 -48.78,21.85 -48.78,48.79 0,26.94 21.84,48.78 48.78,48.78"
         style="fill:#d8aa50;fill-opacity:1;fill-rule:evenodd;stroke:none"
         id="path402"
         inkscape:connector-curvature="0" /><path
         d="m 7592.7003,2258.4395 c 21.25,0 38.47,-17.22 38.47,-38.47 0,-21.25 -17.22,-38.47 -38.47,-38.47 -21.25,0 -38.47,17.22 -38.47,38.47 0,21.25 17.22,38.47 38.47,38.47"
         style="fill:#d8aa50;fill-opacity:1;fill-rule:evenodd;stroke:none"
         id="path404"
         inkscape:connector-curvature="0" /><path
         d="m 7374.5003,1937.8495 c 17.8,0 32.23,-14.43 32.23,-32.23 0,-17.8 -14.43,-32.23 -32.23,-32.23 -17.8,0 -32.23,14.43 -32.23,32.23 0,17.8 14.43,32.23 32.23,32.23"
         style="fill:#d8aa50;fill-opacity:1;fill-rule:evenodd;stroke:none"
         id="path406"
         inkscape:connector-curvature="0" /><path
         d="m 6714.6703,2051.6495 c 16.81,0 30.43,-13.62 30.43,-30.43 0,-16.81 -13.62,-30.44 -30.43,-30.44 -16.81,0 -30.44,13.63 -30.44,30.44 0,16.81 13.63,30.43 30.44,30.43"
         style="fill:#d8aa50;fill-opacity:1;fill-rule:evenodd;stroke:none"
         id="path408"
         inkscape:connector-curvature="0" /></g></g></svg>